<svg version="1.1" xmlns="http://www.w3.org/2000/svg" viewBox="0 0 866.6484375 667.771484375" width="866.6484375" height="667.771484375" class="excalidraw-svg">
  <!-- svg-source:excalidraw -->
  
  <defs>
    <style class="style-fonts">
      @font-face {
        font-family: "Virgil";
        src: url("https://excalidraw.com/Virgil.woff2");
      }
      @font-face {
        font-family: "Cascadia";
        src: url("https://excalidraw.com/Cascadia.woff2");
      }
      @font-face {
        font-family: "Assistant";
        src: url("https://excalidraw.com/Assistant-Regular.woff2");
      }
    </style>
    
  </defs>
  <rect x="0" y="0" width="866.6484375" height="667.771484375" fill="#ffffff"/><g stroke-linecap="round" transform="translate(302.935546875 10) rotate(0 70.783203125 54.228515625)"><path d="M59.84 0.31 C69.88 -1.88, 83.51 -0.9, 93.91 2.02 C104.31 4.95, 114.64 11.74, 122.24 17.86 C129.84 23.99, 136.57 30.82, 139.51 38.77 C142.44 46.71, 142.17 57.3, 139.85 65.52 C137.53 73.74, 132.71 81.49, 125.61 88.07 C118.51 94.66, 107.44 101.55, 97.26 105.04 C87.07 108.53, 75.26 109.93, 64.51 109.02 C53.76 108.11, 41.98 104.16, 32.76 99.57 C23.54 94.98, 14.49 88.65, 9.2 81.48 C3.91 74.31, 1.21 65.02, 1.01 56.53 C0.82 48.05, 3.51 38.27, 8.03 30.57 C12.55 22.87, 18.75 15.46, 28.12 10.34 C37.48 5.22, 57.36 1.27, 64.23 -0.16 C71.11 -1.59, 69.12 0.65, 69.34 1.75 M74.53 1.54 C85.11 1.07, 97.72 2.71, 107.24 6.92 C116.76 11.12, 125.84 19.53, 131.63 26.77 C137.43 34.02, 141.33 42.3, 142.03 50.4 C142.72 58.51, 140.45 67.67, 135.8 75.38 C131.15 83.08, 122.62 91.26, 114.14 96.64 C105.65 102.01, 95.63 105.87, 84.89 107.64 C74.15 109.42, 60.42 109.52, 49.68 107.29 C38.95 105.06, 28.27 100.51, 20.5 94.26 C12.73 88.01, 6.23 77.87, 3.08 69.79 C-0.08 61.71, -0.38 53.67, 1.58 45.77 C3.53 37.87, 8.02 29.26, 14.83 22.4 C21.63 15.55, 32.62 8.25, 42.4 4.65 C52.19 1.05, 68.24 1.58, 73.53 0.81 C78.82 0.04, 74.17 -0.63, 74.15 0.03" stroke="none" stroke-width="0" fill="#ffc9c9"/><path d="M90.8 3.11 C101.24 4.59, 113.11 9.11, 121.14 15.03 C129.16 20.95, 135.63 30.62, 138.92 38.65 C142.21 46.67, 142.95 55.24, 140.9 63.19 C138.84 71.14, 133.36 79.59, 126.6 86.34 C119.84 93.09, 110.38 100.06, 100.35 103.69 C90.32 107.32, 77.23 108.6, 66.42 108.12 C55.62 107.64, 44.77 104.9, 35.52 100.8 C26.26 96.71, 16.72 90.59, 10.89 83.55 C5.06 76.5, 1.39 67.21, 0.54 58.54 C-0.31 49.87, 1.44 39.18, 5.79 31.53 C10.15 23.88, 17.96 17.7, 26.66 12.63 C35.36 7.57, 46.84 2.69, 58 1.13 C69.16 -0.42, 87.19 2.59, 93.63 3.31 C100.08 4.04, 97 4.81, 96.67 5.5 M81.36 0.16 C91.9 0.59, 104.54 6.42, 113.25 11.77 C121.96 17.12, 128.69 24.65, 133.64 32.26 C138.59 39.86, 143.2 49.4, 142.94 57.39 C142.67 65.39, 137.55 72.93, 132.05 80.25 C126.54 87.57, 119.22 96.58, 109.93 101.32 C100.63 106.05, 87.18 108.43, 76.28 108.66 C65.38 108.88, 54.52 106.22, 44.51 102.67 C34.5 99.12, 23.53 93.81, 16.21 87.34 C8.9 80.88, 3.09 71.99, 0.62 63.86 C-1.86 55.74, -1.69 46.63, 1.36 38.59 C4.4 30.56, 11.16 21.85, 18.88 15.65 C26.61 9.45, 36.95 4, 47.73 1.39 C58.52 -1.23, 77.95 0.13, 83.6 -0.02 C89.25 -0.18, 82.29 -0.55, 81.63 0.44" stroke="#1e1e1e" stroke-width="2" fill="none"/></g><g transform="translate(340.8793811387077 52.88316449288186) rotate(0 32.7880859375 11.5)"><text x="32.7880859375" y="0" font-family="Helvetica, Segoe UI Emoji" font-size="20px" fill="#1e1e1e" text-anchor="middle" style="white-space: pre;" direction="ltr" dominant-baseline="text-before-edge">root ctx</text></g><g stroke-linecap="round" transform="translate(157.1328125 190.767578125) rotate(0 70.783203125 54.228515625)"><path d="M62.7 -0.41 C73.22 -2.02, 87.55 1.41, 97.72 4.68 C107.89 7.94, 116.86 12.93, 123.72 19.19 C130.58 25.45, 136.31 34.01, 138.87 42.24 C141.44 50.47, 141.75 60.33, 139.11 68.57 C136.46 76.82, 130.54 85.61, 123.02 91.69 C115.49 97.77, 104.24 102.47, 93.98 105.05 C83.71 107.63, 72.17 108.3, 61.42 107.17 C50.67 106.03, 38.49 103.07, 29.48 98.24 C20.46 93.4, 12.3 85.55, 7.33 78.16 C2.37 70.76, -0.37 62.19, -0.3 53.88 C-0.22 45.57, 2.58 35.82, 7.8 28.29 C13.02 20.77, 21.24 13.55, 31.05 8.73 C40.86 3.91, 60.42 0.77, 66.66 -0.63 C72.89 -2.03, 68.46 -0.67, 68.45 0.33 M37.69 7.35 C46.59 2.82, 59.88 -1.14, 70.58 -1.27 C81.28 -1.41, 92.2 2.32, 101.89 6.56 C111.59 10.79, 122.39 17.39, 128.75 24.12 C135.11 30.85, 138.4 38.64, 140.04 46.92 C141.68 55.21, 142.32 66.07, 138.57 73.81 C134.81 81.56, 126.1 87.93, 117.51 93.4 C108.93 98.87, 97.44 104.34, 87.05 106.62 C76.66 108.89, 65.86 109.19, 55.16 107.03 C44.47 104.88, 31.53 99.15, 22.89 93.69 C14.26 88.24, 7.34 82.12, 3.36 74.31 C-0.61 66.49, -2.48 55.46, -0.96 46.82 C0.55 38.18, 6.16 29.17, 12.47 22.49 C18.78 15.81, 32.89 9.08, 36.91 6.73 C40.93 4.39, 36.05 7.82, 36.58 8.43" stroke="none" stroke-width="0" fill="#b2f2bb"/><path d="M72.63 0.07 C82.92 -0.62, 95.53 1.98, 105.09 6.15 C114.65 10.31, 123.86 17.77, 129.98 25.05 C136.11 32.34, 140.71 41.68, 141.82 49.86 C142.92 58.04, 140.81 66.59, 136.63 74.11 C132.46 81.63, 125.42 89.58, 116.75 94.98 C108.07 100.37, 95.42 104.57, 84.58 106.48 C73.74 108.39, 62.24 108.69, 51.73 106.45 C41.22 104.21, 29.59 98.69, 21.52 93.02 C13.45 87.35, 6.71 80.22, 3.3 72.42 C-0.1 64.62, -0.81 54.62, 1.08 46.23 C2.97 37.84, 8.23 28.75, 14.64 22.06 C21.05 15.37, 28.47 9.75, 39.54 6.1 C50.6 2.46, 73.1 0.87, 81.03 0.19 C88.97 -0.5, 87.54 0.91, 87.14 2.01 M62.77 -1.23 C73.13 -2.67, 87.04 0.16, 97.4 3.44 C107.76 6.72, 117.92 12.03, 124.91 18.42 C131.91 24.82, 136.77 33.57, 139.37 41.81 C141.96 50.06, 143.34 59.61, 140.49 67.9 C137.64 76.2, 130.07 85.08, 122.28 91.58 C114.48 98.08, 104.14 104.09, 93.73 106.89 C83.32 109.69, 70.64 109.86, 59.84 108.39 C49.03 106.93, 37.61 103.38, 28.89 98.12 C20.17 92.87, 12.52 84.41, 7.52 76.88 C2.51 69.35, -1.59 60.89, -1.14 52.93 C-0.69 44.97, 4.78 36.64, 10.23 29.12 C15.68 21.59, 22.81 12.36, 31.55 7.76 C40.28 3.16, 57.41 2.32, 62.61 1.5 C67.82 0.68, 62.36 2.31, 62.76 2.82" stroke="#1e1e1e" stroke-width="2" fill="none"/></g><g transform="translate(188.95848270120769 233.65074261788186) rotate(0 38.90625 11.5)"><text x="38.90625" y="0" font-family="Helvetica, Segoe UI Emoji" font-size="20px" fill="#1e1e1e" text-anchor="middle" style="white-space: pre;" direction="ltr" dominant-baseline="text-before-edge">valueCtx</text></g><g stroke-linecap="round" transform="translate(446.7421875 191.369140625) rotate(0 70.783203125 54.228515625)"><path d="M40.98 5.63 C49.84 1.54, 61.5 0.81, 72.23 0.98 C82.97 1.16, 95.72 2.64, 105.41 6.7 C115.1 10.76, 124.58 18.09, 130.4 25.34 C136.22 32.59, 139.28 42.02, 140.32 50.18 C141.37 58.33, 140.76 66.65, 136.67 74.25 C132.57 81.85, 124.14 90.21, 115.76 95.78 C107.37 101.34, 96.9 105.84, 86.35 107.65 C75.8 109.45, 63.24 108.88, 52.45 106.61 C41.65 104.34, 29.83 99.8, 21.57 94.01 C13.31 88.22, 6.23 79.82, 2.87 71.87 C-0.48 63.93, -0.28 54.54, 1.45 46.34 C3.18 38.14, 5.86 29.67, 13.27 22.66 C20.67 15.65, 39.52 7.48, 45.87 4.28 C52.22 1.08, 50.94 2.73, 51.36 3.46 M86.18 0.29 C96.82 0.96, 107.85 6.95, 116.41 12.71 C124.98 18.47, 133.48 26.87, 137.57 34.82 C141.67 42.78, 142.36 52.25, 141 60.44 C139.65 68.63, 135.36 77.11, 129.45 83.97 C123.53 90.82, 114.7 97.36, 105.49 101.59 C96.28 105.82, 85.28 108.96, 74.19 109.34 C63.1 109.73, 48.81 107.84, 38.94 103.89 C29.06 99.95, 21.32 92.75, 14.95 85.68 C8.58 78.6, 2.58 69.52, 0.73 61.45 C-1.12 53.37, 0.22 45.16, 3.85 37.22 C7.48 29.28, 14.51 19.47, 22.5 13.82 C30.5 8.16, 41.4 5.49, 51.84 3.31 C62.27 1.12, 79.63 0.8, 85.09 0.71 C90.55 0.63, 84.53 2.01, 84.6 2.81" stroke="none" stroke-width="0" fill="#b2f2bb"/><path d="M45.09 3.11 C54.54 -0.39, 68.86 -0.4, 79.77 0.8 C90.68 2, 101.74 5.71, 110.56 10.3 C119.37 14.9, 127.53 21.06, 132.64 28.35 C137.75 35.63, 140.9 45.43, 141.21 54.01 C141.51 62.59, 139.33 72.29, 134.46 79.83 C129.58 87.37, 121.02 94.55, 111.95 99.27 C102.87 103.99, 90.92 107.06, 80.03 108.15 C69.13 109.24, 57.04 108.88, 46.56 105.8 C36.08 102.73, 24.71 96.1, 17.15 89.71 C9.59 83.31, 3.66 75.39, 1.2 67.44 C-1.26 59.49, -0.36 50.11, 2.38 42.01 C5.12 33.91, 9.44 25.38, 17.64 18.85 C25.83 12.32, 44.77 5.81, 51.55 2.86 C58.34 -0.09, 57.92 0.3, 58.36 1.15 M53.95 1.1 C63.71 -1.45, 78.35 -0.28, 89.23 2.06 C100.12 4.39, 111.41 9.43, 119.28 15.12 C127.15 20.81, 133.02 28.47, 136.43 36.21 C139.85 43.95, 141.29 53.31, 139.76 61.56 C138.23 69.82, 133.51 78.88, 127.23 85.75 C120.95 92.61, 111.72 99.19, 102.07 102.76 C92.42 106.32, 80.06 107.49, 69.31 107.15 C58.57 106.81, 47.22 104.63, 37.62 100.7 C28.02 96.77, 18.01 90.39, 11.73 83.55 C5.45 76.71, 1.24 68.13, -0.05 59.64 C-1.34 51.16, -0.11 40.34, 4.01 32.63 C8.13 24.93, 15.98 18.76, 24.66 13.42 C33.34 8.08, 50.76 2.21, 56.1 0.6 C61.43 -1.01, 56.61 2.52, 56.64 3.77" stroke="#1e1e1e" stroke-width="2" fill="none"/></g><g transform="translate(473.5678577012077 222.75230511788186) rotate(0 43.90625000000001 23)"><text x="43.90625" y="0" font-family="Helvetica, Segoe UI Emoji" font-size="20px" fill="#1e1e1e" text-anchor="middle" style="white-space: pre;" direction="ltr" dominant-baseline="text-before-edge">cancelCtx</text><text x="43.90625" y="23" font-family="Helvetica, Segoe UI Emoji" font-size="20px" fill="#1e1e1e" text-anchor="middle" style="white-space: pre;" direction="ltr" dominant-baseline="text-before-edge">节点1</text></g><g stroke-linecap="round" transform="translate(10 374.775390625) rotate(0 70.783203125 54.228515625)"><path d="M64.84 0.04 C74.86 -1.28, 86.92 1.88, 97.05 5.05 C107.18 8.21, 118.34 12.79, 125.64 19.02 C132.94 25.25, 138.65 34.05, 140.85 42.43 C143.05 50.81, 141.89 60.99, 138.85 69.3 C135.8 77.61, 130.08 86.19, 122.6 92.31 C115.12 98.44, 104.25 103.43, 93.98 106.06 C83.71 108.68, 71.91 109.5, 60.98 108.06 C50.04 106.63, 37.18 102.31, 28.35 97.45 C19.52 92.58, 12.82 86.46, 7.99 78.88 C3.17 71.3, -0.71 60.43, -0.61 51.96 C-0.5 43.48, 3.17 35.23, 8.62 28.02 C14.07 20.82, 21.96 13.33, 32.11 8.71 C42.26 4.09, 62.74 1.66, 69.5 0.31 C76.26 -1.04, 72.78 -0.26, 72.68 0.58 M54.36 1.78 C64 -0.53, 75.16 1.09, 85.38 2.79 C95.6 4.5, 107.24 6.85, 115.67 12 C124.1 17.16, 131.69 25.71, 135.97 33.72 C140.24 41.73, 142.49 51.63, 141.31 60.06 C140.13 68.48, 135.09 77.23, 128.89 84.25 C122.69 91.27, 113.79 98.24, 104.1 102.16 C94.4 106.08, 81.66 107.59, 70.73 107.78 C59.79 107.96, 48.26 107.14, 38.47 103.28 C28.69 99.42, 18.25 91.44, 12.03 84.62 C5.8 77.8, 2.46 70.3, 1.15 62.36 C-0.17 54.42, 0.66 45.24, 4.14 36.98 C7.62 28.73, 13.95 18.51, 22.01 12.83 C30.06 7.15, 47.09 4.65, 52.45 2.9 C57.81 1.16, 53.99 1.53, 54.17 2.35" stroke="none" stroke-width="0" fill="#a5d8ff"/><path d="M69.58 0.25 C79.8 -0.77, 91.71 2.77, 101.37 6.44 C111.03 10.12, 120.8 15.85, 127.53 22.29 C134.26 28.74, 140.12 36.76, 141.74 45.11 C143.35 53.45, 140.91 64.4, 137.21 72.37 C133.5 80.33, 127.29 87.28, 119.51 92.9 C111.74 98.51, 101.19 103.74, 90.56 106.07 C79.92 108.39, 66.4 108.46, 55.71 106.83 C45.02 105.19, 34.94 101.48, 26.4 96.25 C17.87 91.02, 8.76 83.34, 4.48 75.44 C0.19 67.53, -0.53 57.24, 0.69 48.81 C1.91 40.39, 5.85 31.89, 11.82 24.9 C17.78 17.9, 26.22 10.81, 36.48 6.82 C46.75 2.83, 66.33 1.81, 73.4 0.97 C80.47 0.12, 78.9 1.12, 78.9 1.75 M83.33 0.21 C93.64 0.87, 104.69 7.22, 113.53 12.53 C122.38 17.83, 131.78 24.42, 136.4 32.04 C141.02 39.66, 141.91 49.97, 141.25 58.26 C140.58 66.54, 137.88 74.68, 132.4 81.76 C126.92 88.83, 117.75 96.44, 108.35 100.7 C98.95 104.96, 87.36 106.76, 76.01 107.32 C64.67 107.89, 50.59 107.59, 40.27 104.07 C29.95 100.55, 20.54 93.09, 14.11 86.19 C7.67 79.3, 3.56 70.78, 1.65 62.69 C-0.27 54.6, -0.52 45.56, 2.6 37.63 C5.71 29.71, 12.46 21.21, 20.32 15.13 C28.18 9.05, 39.11 3.74, 49.76 1.13 C60.41 -1.47, 78.76 -0.61, 84.22 -0.52 C89.68 -0.43, 82.85 0.5, 82.53 1.68" stroke="#1e1e1e" stroke-width="2" fill="none"/></g><g transform="translate(36.825670201207686 417.65855511788186) rotate(0 43.90625 11.500000000000007)"><text x="43.90625" y="0" font-family="Helvetica, Segoe UI Emoji" font-size="20px" fill="#1e1e1e" text-anchor="middle" style="white-space: pre;" direction="ltr" dominant-baseline="text-before-edge">cancelCtx</text></g><g stroke-linecap="round" transform="translate(333.60546875 370.970703125) rotate(0 70.783203125 54.228515625)"><path d="M83.88 0.7 C94.58 1.43, 106.65 6.15, 115.23 11.23 C123.81 16.32, 131.11 23.56, 135.36 31.21 C139.61 38.86, 141.49 48.46, 140.74 57.13 C140 65.81, 136.59 75.93, 130.87 83.26 C125.15 90.58, 115.79 96.83, 106.42 101.09 C97.05 105.34, 85.4 108.25, 74.66 108.78 C63.92 109.31, 52.08 107.77, 42 104.25 C31.92 100.73, 21.12 94.49, 14.2 87.68 C7.29 80.87, 2.19 71.82, 0.51 63.41 C-1.18 54.99, 0.64 45.24, 4.09 37.19 C7.55 29.15, 13.71 20.93, 21.26 15.13 C28.8 9.33, 38.17 4.75, 49.36 2.39 C60.54 0.03, 81.12 0.81, 88.34 0.96 C95.56 1.11, 92.87 2.4, 92.66 3.3 M62.36 -0.37 C72.63 -2.21, 85.31 1.18, 95.31 4.25 C105.32 7.31, 114.91 12.1, 122.39 18.04 C129.88 23.98, 137.16 31.92, 140.22 39.87 C143.27 47.81, 143.39 57.41, 140.72 65.73 C138.06 74.05, 131.57 83.15, 124.22 89.78 C116.87 96.41, 106.85 102.68, 96.61 105.51 C86.36 108.33, 73.64 107.61, 62.75 106.74 C51.85 105.87, 40.05 104.92, 31.22 100.28 C22.39 95.64, 14.83 86.17, 9.75 78.89 C4.66 71.62, 1.32 65.01, 0.71 56.65 C0.11 48.29, 1.18 36.68, 6.13 28.73 C11.08 20.79, 21.44 13.55, 30.39 8.97 C39.35 4.4, 54.81 2.3, 59.85 1.27 C64.9 0.25, 60.1 2.08, 60.66 2.82" stroke="none" stroke-width="0" fill="#a5d8ff"/><path d="M37.34 5.5 C45.99 1.09, 59.98 -0.77, 71.18 -0.7 C82.38 -0.63, 94.86 2.02, 104.53 5.94 C114.2 9.85, 123.15 15.91, 129.21 22.78 C135.27 29.64, 139.71 38.71, 140.91 47.11 C142.11 55.51, 140.21 65.1, 136.4 73.18 C132.58 81.26, 126.19 89.99, 118.01 95.58 C109.83 101.18, 97.99 104.98, 87.31 106.75 C76.63 108.52, 64.5 108.12, 53.93 106.2 C43.36 104.28, 32.26 100.75, 23.87 95.25 C15.48 89.74, 7.52 81.27, 3.61 73.18 C-0.3 65.08, -1.18 55.06, 0.41 46.69 C2 38.31, 5.81 30.04, 13.16 22.91 C20.52 15.78, 38.08 7.08, 44.53 3.93 C50.97 0.78, 51.42 3.12, 51.83 4 M72.61 0.39 C82.69 -0.26, 94.22 3.66, 103.94 7.85 C113.66 12.04, 124.81 18.48, 130.94 25.54 C137.08 32.6, 139.83 42.15, 140.73 50.21 C141.63 58.27, 140.37 66.11, 136.34 73.9 C132.31 81.7, 125.14 91.25, 116.54 96.99 C107.94 102.74, 95.64 106.64, 84.75 108.37 C73.86 110.1, 61.57 109.57, 51.19 107.36 C40.81 105.15, 30.5 101.11, 22.48 95.13 C14.45 89.14, 6.82 79.66, 3.02 71.47 C-0.77 63.27, -1.8 54.26, -0.31 45.96 C1.18 37.65, 5.58 28.38, 11.97 21.62 C18.36 14.86, 27.94 8.89, 38.03 5.4 C48.13 1.92, 66.8 1.5, 72.56 0.7 C78.31 -0.1, 72.77 -0.26, 72.55 0.61" stroke="#1e1e1e" stroke-width="2" fill="none"/></g><g transform="translate(365.4311389512077 413.85386761788186) rotate(0 38.90625 11.5)"><text x="38.90625" y="0" font-family="Helvetica, Segoe UI Emoji" font-size="20px" fill="#1e1e1e" text-anchor="middle" style="white-space: pre;" direction="ltr" dominant-baseline="text-before-edge">valueCtx</text></g><g stroke-linecap="round" transform="translate(463.953125 546.212890625) rotate(0 70.783203125 54.228515625)"><path d="M83.15 1.34 C93.7 1.97, 106.11 7.16, 114.7 12.35 C123.29 17.54, 130.14 24.84, 134.69 32.48 C139.24 40.13, 142.67 50.02, 142 58.23 C141.33 66.44, 136.33 74.73, 130.68 81.73 C125.02 88.74, 117.49 95.94, 108.09 100.25 C98.69 104.56, 85.54 107.09, 74.29 107.57 C63.05 108.04, 50.36 106.29, 40.64 103.1 C30.92 99.9, 22.62 95.07, 15.95 88.39 C9.29 81.72, 2.78 71.45, 0.66 63.04 C-1.46 54.63, -0.22 45.75, 3.25 37.94 C6.71 30.14, 13.62 22.21, 21.45 16.19 C29.27 10.17, 38.77 4.22, 50.19 1.82 C61.62 -0.59, 82.66 1.23, 89.99 1.77 C97.31 2.31, 94.51 4.26, 94.13 5.05 M95.51 4.83 C105.17 7, 115.74 12.44, 122.98 18.61 C130.22 24.79, 136.15 33.91, 138.95 41.9 C141.74 49.89, 142.28 58.71, 139.75 66.58 C137.21 74.45, 131.28 82.6, 123.74 89.14 C116.19 95.69, 104.58 102.74, 94.46 105.84 C84.33 108.93, 73.95 108.82, 62.99 107.71 C52.02 106.6, 37.91 103.79, 28.67 99.16 C19.42 94.52, 12.16 87.54, 7.5 79.91 C2.85 72.27, 0.51 61.95, 0.72 53.34 C0.92 44.73, 3.69 35.75, 8.74 28.26 C13.8 20.78, 21.88 13.14, 31.03 8.42 C40.17 3.7, 52.53 0.65, 63.62 -0.05 C74.72 -0.75, 92.27 3.68, 97.6 4.23 C102.93 4.78, 96.5 2.6, 95.62 3.28" stroke="none" stroke-width="0" fill="#ffec99"/><path d="M85.02 1.18 C95.6 1.97, 107.62 6.7, 116.05 12.03 C124.49 17.35, 131.57 25.3, 135.63 33.13 C139.68 40.97, 141.21 50.65, 140.39 59.05 C139.57 67.45, 136.3 76.54, 130.68 83.53 C125.07 90.53, 116.18 96.94, 106.68 101.03 C97.18 105.12, 84.67 107.85, 73.67 108.07 C62.67 108.29, 50.52 105.82, 40.68 102.34 C30.83 98.87, 21.32 93.68, 14.59 87.2 C7.87 80.73, 2.21 71.89, 0.33 63.49 C-1.55 55.09, -0.41 44.99, 3.32 36.8 C7.04 28.61, 14.69 20.19, 22.69 14.35 C30.69 8.51, 39.75 3.56, 51.32 1.75 C62.9 -0.05, 84.05 2.77, 92.12 3.51 C100.18 4.26, 99.82 5.55, 99.71 6.22 M64.45 -0.75 C74.98 -2.36, 89.22 1.16, 99.36 4.53 C109.51 7.89, 118.31 13.27, 125.33 19.44 C132.35 25.6, 139.29 33.17, 141.47 41.52 C143.65 49.87, 141.45 61.05, 138.42 69.53 C135.39 78.02, 130.89 86.42, 123.28 92.43 C115.67 98.44, 103.39 102.87, 92.75 105.6 C82.11 108.33, 69.98 110.11, 59.46 108.81 C48.94 107.5, 38.28 102.73, 29.61 97.78 C20.95 92.83, 12.43 86.82, 7.46 79.12 C2.48 71.42, -0.48 59.97, -0.22 51.61 C0.04 43.24, 3.47 36.17, 9.01 28.94 C14.54 21.71, 23.54 12.8, 32.99 8.23 C42.43 3.66, 60.31 2.61, 65.69 1.51 C71.06 0.42, 65.27 0.87, 65.23 1.65" stroke="#1e1e1e" stroke-width="2" fill="none"/></g><g transform="translate(490.7787952012077 577.5960551178819) rotate(0 43.90625000000001 23)"><text x="43.90625" y="0" font-family="Helvetica, Segoe UI Emoji" font-size="20px" fill="#1e1e1e" text-anchor="middle" style="white-space: pre;" direction="ltr" dominant-baseline="text-before-edge">cancelCtx</text><text x="43.90625" y="23" font-family="Helvetica, Segoe UI Emoji" font-size="20px" fill="#1e1e1e" text-anchor="middle" style="white-space: pre;" direction="ltr" dominant-baseline="text-before-edge">节点2</text></g><g stroke-linecap="round" transform="translate(619.9453125 378.220703125) rotate(0 70.783203125 54.228515625)"><path d="M102.58 6.01 C112.31 8.8, 122.54 15.92, 128.81 22.67 C135.08 29.42, 138.74 37.98, 140.2 46.5 C141.67 55.02, 141.29 65.78, 137.58 73.79 C133.86 81.79, 126.17 89.18, 117.93 94.52 C109.69 99.87, 98.82 103.72, 88.14 105.85 C77.45 107.99, 64.56 109.02, 53.81 107.34 C43.06 105.65, 31.7 101.44, 23.63 95.74 C15.57 90.03, 9.29 81.01, 5.43 73.13 C1.57 65.24, -0.68 56.55, 0.47 48.43 C1.62 40.31, 6.33 31.41, 12.34 24.41 C18.34 17.42, 26.75 10.62, 36.52 6.46 C46.29 2.29, 58.3 -1.37, 70.96 -0.59 C83.62 0.2, 104.47 8.37, 112.47 11.16 C120.47 13.95, 119.69 15.45, 118.97 16.15 M85.75 2.42 C96.27 3.19, 108.7 6.84, 116.89 11.88 C125.09 16.92, 130.92 24.75, 134.93 32.67 C138.94 40.59, 141.65 51.02, 140.98 59.41 C140.3 67.79, 136.92 76.1, 130.85 82.99 C124.78 89.88, 114.39 96.49, 104.55 100.75 C94.71 105.01, 82.73 108.43, 71.83 108.57 C60.92 108.71, 48.76 105.29, 39.13 101.62 C29.5 97.94, 20.44 92.97, 14.04 86.54 C7.65 80.1, 2.29 71.14, 0.76 62.98 C-0.76 54.81, 1.53 45.32, 4.9 37.55 C8.27 29.78, 13.33 22.03, 20.98 16.36 C28.63 10.68, 39.86 5.77, 50.78 3.48 C61.71 1.19, 80.86 2.69, 86.51 2.61 C92.16 2.54, 84.93 2.37, 84.67 3.03" stroke="none" stroke-width="0" fill="#a5d8ff"/><path d="M44.63 3.23 C54.05 -0.58, 66.72 -1.23, 77.67 -0.24 C88.63 0.75, 101.03 4.38, 110.34 9.15 C119.65 13.93, 128.4 20.98, 133.56 28.41 C138.71 35.84, 141.28 45.53, 141.29 53.72 C141.31 61.91, 138.33 70.15, 133.64 77.56 C128.96 84.96, 122.05 93.25, 113.17 98.14 C104.3 103.03, 91.51 105.65, 80.41 106.89 C69.3 108.13, 56.66 108.22, 46.55 105.57 C36.44 102.91, 26.98 97.08, 19.74 90.95 C12.5 84.82, 6.21 76.74, 3.13 68.79 C0.06 60.83, -1.05 51.41, 1.29 43.23 C3.64 35.05, 9.1 26.56, 17.21 19.72 C25.32 12.88, 43.36 5.14, 49.96 2.18 C56.56 -0.79, 56.42 1.02, 56.79 1.93 M86.29 1.24 C96.69 2.37, 108.75 8.41, 117.32 14.1 C125.89 19.8, 133.82 27.92, 137.73 35.43 C141.64 42.93, 142.28 50.83, 140.77 59.15 C139.27 67.46, 134.8 77.96, 128.7 85.3 C122.59 92.64, 113.47 99.49, 104.14 103.18 C94.81 106.88, 83.6 107.68, 72.73 107.47 C61.86 107.25, 48.79 105.73, 38.91 101.89 C29.03 98.05, 19.96 91.11, 13.45 84.41 C6.94 77.72, 1.22 69.77, -0.14 61.73 C-1.51 53.69, 1.08 44.25, 5.26 36.17 C9.44 28.09, 16.69 18.75, 24.93 13.24 C33.17 7.72, 44.5 5.09, 54.7 3.09 C64.89 1.08, 80.76 1.09, 86.11 1.19 C91.45 1.28, 86.9 2.79, 86.76 3.67" stroke="#1e1e1e" stroke-width="2" fill="none"/></g><g transform="translate(651.7709827012077 421.10386761788186) rotate(0 38.90625 11.500000000000007)"><text x="38.90625" y="0" font-family="Helvetica, Segoe UI Emoji" font-size="20px" fill="#1e1e1e" text-anchor="middle" style="white-space: pre;" direction="ltr" dominant-baseline="text-before-edge">valueCtx</text></g><g stroke-linecap="round"><g transform="translate(346.8558431925628 119.46818934626623) rotate(0 -33.890136313384964 41.040226192337606)"><path d="M0.3 -0.2 C-11.05 13.59, -56.88 68.13, -68.09 81.91 M-1 -1.35 C-12.53 12.71, -58.15 69.74, -69.21 83.35" stroke="#1e1e1e" stroke-width="2" fill="none"/></g><g transform="translate(346.8558431925628 119.46818934626623) rotate(0 -33.890136313384964 41.040226192337606)"><path d="M-61.13 59.69 C-64.05 66.27, -66.43 75.17, -69.21 83.35 M-61.13 59.69 C-64.85 66.83, -65.78 75.38, -69.21 83.35" stroke="#1e1e1e" stroke-width="2" fill="none"/></g><g transform="translate(346.8558431925628 119.46818934626623) rotate(0 -33.890136313384964 41.040226192337606)"><path d="M-47.81 70.42 C-54.65 73.82, -61 79.5, -69.21 83.35 M-47.81 70.42 C-55.95 73.98, -61.32 78.96, -69.21 83.35" stroke="#1e1e1e" stroke-width="2" fill="none"/></g></g><mask/><g stroke-linecap="round"><g transform="translate(409.71927407712906 125.68710088000307) rotate(0 28.72426467209384 37.74338922731283)"><path d="M-0.42 -0.5 C9.08 12.03, 48.39 63.41, 58.02 76.08 M1.56 -1.81 C10.86 10.28, 48.2 61.16, 57.37 74.27" stroke="#1e1e1e" stroke-width="2" fill="none"/></g><g transform="translate(409.71927407712906 125.68710088000307) rotate(0 28.72426467209384 37.74338922731283)"><path d="M36.71 60.2 C43.99 66.68, 53.82 71.08, 57.37 74.27 M36.71 60.2 C43.36 64.54, 49.25 68.9, 57.37 74.27" stroke="#1e1e1e" stroke-width="2" fill="none"/></g><g transform="translate(409.71927407712906 125.68710088000307) rotate(0 28.72426467209384 37.74338922731283)"><path d="M50.59 50.2 C52.57 60.51, 57.02 68.78, 57.37 74.27 M50.59 50.2 C53.11 57.46, 54.82 64.82, 57.37 74.27" stroke="#1e1e1e" stroke-width="2" fill="none"/></g></g><mask/><g stroke-linecap="round"><g transform="translate(171.6996786012428 291.1672345667315) rotate(0 -32.54635151989311 42.54813403909874)"><path d="M1.15 -0.98 C-9.76 13.5, -53.87 71.72, -64.71 85.96 M0.29 1.11 C-10.81 15.35, -54.73 70.24, -65.46 84.29" stroke="#1e1e1e" stroke-width="2" fill="none"/></g><g transform="translate(171.6996786012428 291.1672345667315) rotate(0 -32.54635151989311 42.54813403909874)"><path d="M-57.69 60.53 C-62.33 69.85, -62.07 79.77, -65.46 84.29 M-57.69 60.53 C-58.81 65.6, -60.86 71.92, -65.46 84.29" stroke="#1e1e1e" stroke-width="2" fill="none"/></g><g transform="translate(171.6996786012428 291.1672345667315) rotate(0 -32.54635151989311 42.54813403909874)"><path d="M-44.24 71.08 C-53.67 76.7, -58.29 82.81, -65.46 84.29 M-44.24 71.08 C-48.58 73.45, -53.92 77.2, -65.46 84.29" stroke="#1e1e1e" stroke-width="2" fill="none"/></g></g><mask/><g mask="url(#mask-Op4Kb7RuNU3BiWcWVKOAv)" stroke-linecap="round"><g transform="translate(500.27796274611023 306.09686303645583) rotate(0 -29.756204181183016 34.50647714219937)"><path d="M1.07 -0.03 C-8.97 11.71, -49.05 58.33, -59.16 69.88 M0.18 -1.08 C-10.09 10.37, -49.82 56.24, -59.93 68.22" stroke="#1971c2" stroke-width="2" fill="none"/></g><g transform="translate(500.27796274611023 306.09686303645583) rotate(0 -29.756204181183016 34.50647714219937)"><path d="M-51.13 44.82 C-54.74 54.69, -56.71 63.15, -59.93 68.22 M-51.13 44.82 C-53.07 52.07, -56.69 60.37, -59.93 68.22" stroke="#1971c2" stroke-width="2" fill="none"/></g><g transform="translate(500.27796274611023 306.09686303645583) rotate(0 -29.756204181183016 34.50647714219937)"><path d="M-38.15 55.94 C-46.82 61.55, -53.9 65.63, -59.93 68.22 M-38.15 55.94 C-44.31 59.57, -52.15 64.26, -59.93 68.22" stroke="#1971c2" stroke-width="2" fill="none"/></g></g><mask id="mask-Op4Kb7RuNU3BiWcWVKOAv"><rect x="0" y="0" fill="#fff" width="659.7903711084763" height="475.1098173208546"/><rect x="441.61550856492727" y="329.10334017865523" fill="#000" width="57.8125" height="23" opacity="1"/></mask><g transform="translate(441.6155085649272 329.10334017865523) rotate(0 29.236902770982113 11.393172112344761)"><text x="28.90625" y="0" font-family="Helvetica, Segoe UI Emoji" font-size="20px" fill="#1971c2" text-anchor="middle" style="white-space: pre;" direction="ltr" dominant-baseline="text-before-edge">cancel</text></g><g mask="url(#mask-B0_o_PuvCLwZGpjfWusY5)" stroke-linecap="round"><g transform="translate(546.5492788973174 301.17575174680655) rotate(0 51.427644775510544 40.03768448841539)"><path d="M-0.65 0.36 C16.38 13.51, 85.98 65.99, 103.22 79.15 M1.21 -0.5 C18.03 12.75, 85.67 66.74, 102.47 80.19" stroke="#1971c2" stroke-width="2" fill="none"/></g><g transform="translate(546.5492788973174 301.17575174680655) rotate(0 51.427644775510544 40.03768448841539)"><path d="M78.78 72.21 C88.54 76.03, 95.54 78.41, 102.47 80.19 M78.78 72.21 C84.26 74.91, 89.64 76.72, 102.47 80.19" stroke="#1971c2" stroke-width="2" fill="none"/></g><g transform="translate(546.5492788973174 301.17575174680655) rotate(0 51.427644775510544 40.03768448841539)"><path d="M89.45 58.85 C95.13 67.78, 98 75.31, 102.47 80.19 M89.45 58.85 C92.43 64.74, 95.3 69.7, 102.47 80.19" stroke="#1971c2" stroke-width="2" fill="none"/></g></g><mask id="mask-B0_o_PuvCLwZGpjfWusY5"><rect x="0" y="0" fill="#fff" width="749.4045684483385" height="481.2511207236373"/><rect x="569.070673672828" y="329.71343623522193" fill="#000" width="57.8125" height="23" opacity="1"/></mask><g transform="translate(569.0706736728281 329.71343623522193) rotate(0 28.765811963379363 11.312100439397625)"><text x="28.90625" y="0" font-family="Helvetica, Segoe UI Emoji" font-size="20px" fill="#1971c2" text-anchor="middle" style="white-space: pre;" direction="ltr" dominant-baseline="text-before-edge">cancel</text></g><g stroke-linecap="round"><g transform="translate(417.0018436810007 495.47496916182934) rotate(0 36.01849927931311 30.009688981748255)"><path d="M0.88 0.83 C13.12 10.66, 61.11 49.82, 72.87 59.58 M-0.12 0.22 C12.09 10.16, 60.62 50.86, 72.35 60.89" stroke="#1e1e1e" stroke-width="2" fill="none"/></g><g transform="translate(417.0018436810007 495.47496916182934) rotate(0 36.01849927931311 30.009688981748255)"><path d="M48.89 52.26 C56.19 55.63, 59.95 55.33, 72.35 60.89 M48.89 52.26 C55.38 55.05, 60.3 57.07, 72.35 60.89" stroke="#1e1e1e" stroke-width="2" fill="none"/></g><g transform="translate(417.0018436810007 495.47496916182934) rotate(0 36.01849927931311 30.009688981748255)"><path d="M59.93 39.2 C64.54 45.92, 65.54 48.88, 72.35 60.89 M59.93 39.2 C63.66 45.28, 65.8 50.58, 72.35 60.89" stroke="#1e1e1e" stroke-width="2" fill="none"/></g></g><mask/><g stroke-linecap="round" transform="translate(188.03125 539.134765625) rotate(0 70.783203125 54.228515625)"><path d="M57.28 1.36 C67.4 -0.93, 81.94 -0.3, 92.44 2.05 C102.93 4.4, 112.65 9.38, 120.24 15.45 C127.83 21.53, 134.66 30.4, 137.99 38.48 C141.32 46.57, 141.97 55.72, 140.23 63.95 C138.5 72.19, 134.17 81.38, 127.57 87.89 C120.97 94.39, 110.69 99.64, 100.63 102.99 C90.57 106.35, 78.19 108.4, 67.22 108.04 C56.26 107.67, 44.25 105.06, 34.83 100.8 C25.42 96.55, 16.51 89.72, 10.73 82.49 C4.95 75.25, 0.79 65.79, 0.16 57.4 C-0.47 49, 2.5 39.63, 6.95 32.14 C11.39 24.64, 17.92 17.52, 26.83 12.42 C35.73 7.32, 54.16 3.26, 60.39 1.53 C66.61 -0.2, 64.02 1.42, 64.18 2.04 M51.71 3.18 C61.31 -0.12, 73.18 -0.78, 83.92 0.61 C94.66 1.99, 107.61 6.01, 116.14 11.49 C124.68 16.98, 130.8 25.48, 135.12 33.52 C139.44 41.56, 142.93 51.57, 142.04 59.72 C141.15 67.86, 135.55 75.64, 129.78 82.4 C124 89.16, 116.9 96.08, 107.39 100.29 C97.88 104.5, 83.73 107.04, 72.7 107.67 C61.68 108.3, 50.91 107.76, 41.24 104.07 C31.58 100.38, 21.51 92.53, 14.71 85.53 C7.9 78.53, 2.17 70.38, 0.39 62.08 C-1.38 53.77, 0.23 43.73, 4.05 35.72 C7.87 27.7, 15.47 19.53, 23.32 13.96 C31.16 8.4, 46.29 4.32, 51.12 2.32 C55.95 0.32, 52.11 0.89, 52.29 1.95" stroke="none" stroke-width="0" fill="#ffec99"/><path d="M89.46 1.31 C99.8 2.6, 109.91 7.61, 117.98 13.41 C126.05 19.21, 134.05 28.01, 137.88 36.13 C141.7 44.25, 142.65 53.73, 140.92 62.14 C139.19 70.54, 133.87 79.84, 127.48 86.55 C121.1 93.27, 112.31 98.84, 102.62 102.45 C92.92 106.07, 80.24 108.2, 69.29 108.23 C58.33 108.26, 46.54 106.48, 36.89 102.65 C27.25 98.81, 17.63 92.32, 11.4 85.22 C5.17 78.12, 0.54 68.43, -0.5 60.05 C-1.53 51.68, 0.94 42.92, 5.19 34.99 C9.45 27.07, 16.85 18.26, 25.02 12.5 C33.18 6.74, 42.1 2, 54.19 0.43 C66.28 -1.15, 89.24 1.82, 97.56 3.04 C105.89 4.26, 104.79 6.92, 104.14 7.75 M36.32 7.96 C45.08 3.63, 59.25 0.8, 70.28 0.41 C81.32 0.03, 92.58 1.68, 102.52 5.64 C112.45 9.61, 123.43 17.4, 129.91 24.2 C136.39 31, 140.14 38.11, 141.39 46.43 C142.63 54.75, 141.16 66.09, 137.4 74.14 C133.64 82.18, 126.74 89.35, 118.82 94.7 C110.91 100.04, 100.62 104.25, 89.9 106.21 C79.17 108.17, 65.52 108.09, 54.47 106.44 C43.42 104.79, 31.85 101.76, 23.61 96.29 C15.36 90.82, 8.67 81.76, 4.99 73.63 C1.31 65.49, 0.62 55.63, 1.55 47.48 C2.48 39.34, 4.88 31.73, 10.58 24.76 C16.27 17.79, 31.21 8.5, 35.71 5.68 C40.22 2.87, 36.98 6.81, 37.62 7.89" stroke="#1e1e1e" stroke-width="2" fill="none"/></g><g transform="translate(219.85692020120769 582.0179301178819) rotate(0 38.90625 11.5)"><text x="38.90625" y="0" font-family="Helvetica, Segoe UI Emoji" font-size="20px" fill="#1e1e1e" text-anchor="middle" style="white-space: pre;" direction="ltr" dominant-baseline="text-before-edge">valueCtx</text></g><g mask="url(#mask-Hb0PZXKxqCvI7QVDBNJVG)" stroke-linecap="round"><g transform="translate(452.87722699234564 596.6066876278128) rotate(0 -58.95695169407881 3.4612917711299076)"><path d="M0.74 -0.11 C-19 0.95, -99.21 6.06, -118.9 7.34 M-0.33 -1.22 C-19.66 -0.6, -97.12 4.31, -116.7 5.43" stroke="#f08c00" stroke-width="2" fill="none"/></g><g transform="translate(452.87722699234564 596.6066876278128) rotate(0 -58.95695169407881 3.4612917711299076)"><path d="M-93.77 -4.51 C-99.88 -3.41, -105 1.73, -116.7 5.43 M-93.77 -4.51 C-102.34 -1.24, -110.11 2.35, -116.7 5.43" stroke="#f08c00" stroke-width="2" fill="none"/></g><g transform="translate(452.87722699234564 596.6066876278128) rotate(0 -58.95695169407881 3.4612917711299076)"><path d="M-92.74 12.56 C-99.26 9.2, -104.65 9.87, -116.7 5.43 M-92.74 12.56 C-101.59 9.84, -109.72 7.46, -116.7 5.43" stroke="#f08c00" stroke-width="2" fill="none"/></g></g><mask id="mask-Hb0PZXKxqCvI7QVDBNJVG"><rect x="0" y="0" fill="#fff" width="670.7911303805033" height="703.5292711700727"/><rect x="365.0140252982668" y="588.5679793989427" fill="#000" width="57.8125" height="23" opacity="1"/></mask><g transform="translate(365.0140252982668 588.5679793989427) rotate(0 28.785286088287833 11.098531725644108)"><text x="28.90625" y="0" font-family="Helvetica, Segoe UI Emoji" font-size="20px" fill="#f08c00" text-anchor="middle" style="white-space: pre;" direction="ltr" dominant-baseline="text-before-edge">cancel</text></g><g stroke-linecap="round" transform="translate(715.08203125 549.314453125) rotate(0 70.783203125 54.228515625)"><path d="M45.85 2.36 C55.37 -1.08, 69.53 -0.75, 80.59 0.47 C91.65 1.69, 103.48 4.82, 112.22 9.68 C120.96 14.54, 128.18 22.19, 133.02 29.62 C137.86 37.06, 141.39 45.69, 141.29 54.28 C141.19 62.88, 137.77 73.76, 132.4 81.17 C127.03 88.59, 118.01 94.3, 109.08 98.78 C100.14 103.25, 89.56 106.92, 78.79 108.01 C68.03 109.11, 54.83 108.45, 44.48 105.34 C34.14 102.23, 23.82 95.79, 16.71 89.36 C9.59 82.93, 4.21 75.04, 1.8 66.75 C-0.61 58.45, -0.42 47.67, 2.26 39.6 C4.93 31.52, 8.1 24.95, 17.86 18.32 C27.61 11.69, 51.54 2.54, 60.77 -0.18 C70 -2.9, 73.23 0.97, 73.22 2.01 M38.74 5.46 C47.78 0.85, 60.33 -1.06, 71.01 -0.76 C81.69 -0.46, 93.44 3.41, 102.81 7.28 C112.19 11.15, 121.01 15.91, 127.27 22.46 C133.53 29.01, 138.83 38.14, 140.4 46.57 C141.96 55, 140.26 65.14, 136.66 73.04 C133.06 80.94, 126.77 88.25, 118.79 93.98 C110.81 99.7, 99.73 105.37, 88.78 107.39 C77.83 109.41, 63.85 107.96, 53.08 106.08 C42.32 104.2, 32.36 101.68, 24.19 96.11 C16.03 90.54, 7.98 80.48, 4.09 72.65 C0.19 64.81, -0.61 57.4, 0.83 49.11 C2.27 40.82, 6.65 29.95, 12.73 22.91 C18.81 15.87, 33.27 9.34, 37.31 6.88 C41.34 4.42, 36.19 7.55, 36.92 8.16" stroke="none" stroke-width="0" fill="#ffec99"/><path d="M52.96 2.09 C62.63 -0.69, 75.45 -1.23, 86.19 0.69 C96.93 2.62, 109.07 7.98, 117.42 13.65 C125.78 19.33, 132.34 27.06, 136.33 34.74 C140.32 42.42, 142.64 51.57, 141.38 59.73 C140.11 67.9, 134.9 76.59, 128.75 83.7 C122.59 90.82, 113.97 98.41, 104.44 102.43 C94.9 106.46, 82.48 107.75, 71.55 107.86 C60.61 107.97, 48.6 106.92, 38.81 103.1 C29.02 99.28, 19.26 91.85, 12.78 84.93 C6.31 78.02, 1.54 69.74, -0.04 61.6 C-1.62 53.45, -0.61 43.85, 3.32 36.05 C7.25 28.26, 13.22 20.63, 23.53 14.82 C33.84 9, 56.22 3.3, 65.2 1.16 C74.18 -0.99, 77.44 1.12, 77.39 1.94 M43.33 4.86 C52.99 1.21, 68.01 1.08, 79.17 1.62 C90.32 2.17, 101.26 3.6, 110.26 8.12 C119.25 12.65, 128.04 21.16, 133.16 28.77 C138.28 36.38, 140.88 45.58, 140.97 53.8 C141.05 62.02, 138.36 70.51, 133.67 78.09 C128.98 85.67, 121.54 94.48, 112.81 99.29 C104.08 104.1, 92.53 106.1, 81.29 106.95 C70.05 107.81, 55.71 107.06, 45.36 104.41 C35.02 101.76, 26.38 97.11, 19.21 91.04 C12.03 84.98, 5.15 75.97, 2.32 68 C-0.5 60.03, -0.01 51.54, 2.25 43.22 C4.51 34.89, 8.82 24.63, 15.89 18.06 C22.97 11.48, 39.92 6.17, 44.7 3.76 C49.48 1.35, 44.05 2.57, 44.59 3.59" stroke="#1e1e1e" stroke-width="2" fill="none"/></g><g transform="translate(746.9077014512077 592.1976176178819) rotate(0 38.90625 11.5)"><text x="38.90625" y="0" font-family="Helvetica, Segoe UI Emoji" font-size="20px" fill="#1e1e1e" text-anchor="middle" style="white-space: pre;" direction="ltr" dominant-baseline="text-before-edge">valueCtx</text></g><g mask="url(#mask-08gF6kNj2h_uvtD-ZshUp)" stroke-linecap="round"><g transform="translate(610.1916846151906 606.7803096203907) rotate(0 50.49304496102832 -2.508921987466408)"><path d="M-0.76 -0.16 C15.86 -1.13, 83.53 -4.69, 100.33 -5.38 M1.04 -1.29 C18.01 -2.13, 85.81 -3.21, 102.7 -4.03" stroke="#f08c00" stroke-width="2" fill="none"/></g><g transform="translate(610.1916846151906 606.7803096203907) rotate(0 50.49304496102832 -2.508921987466408)"><path d="M79.48 5.23 C87.31 1.05, 95.1 -2.69, 102.7 -4.03 M79.48 5.23 C88.9 1.39, 96.14 -0.45, 102.7 -4.03" stroke="#f08c00" stroke-width="2" fill="none"/></g><g transform="translate(610.1916846151906 606.7803096203907) rotate(0 50.49304496102832 -2.508921987466408)"><path d="M78.96 -11.86 C87.04 -10.06, 95.01 -7.82, 102.7 -4.03 M78.96 -11.86 C88.53 -9.51, 95.95 -5.17, 102.7 -4.03" stroke="#f08c00" stroke-width="2" fill="none"/></g></g><mask id="mask-08gF6kNj2h_uvtD-ZshUp"><rect x="0" y="0" fill="#fff" width="811.1777745372473" height="711.7981535953235"/><rect x="631.778479576219" y="592.7713876329242" fill="#000" width="57.8125" height="23" opacity="1"/></mask><g transform="translate(631.7784795762188 592.7713876329243) rotate(0 29.38488133846316 11.239553718268894)"><text x="28.90625" y="0" font-family="Helvetica, Segoe UI Emoji" font-size="20px" fill="#f08c00" text-anchor="middle" style="white-space: pre;" direction="ltr" dominant-baseline="text-before-edge">cancel</text></g><g mask="url(#mask-0K5viMNSpdJ8ITzUTbS_7)" stroke-linecap="round"><g transform="translate(525.6956131123723 311.6227811320528) rotate(0 3.16207926848125 115.81673722515353)"><path d="M-0.87 0.34 C0.1 38.95, 5.63 193.94, 6.91 232.61" stroke="#1e1e1e" stroke-width="2.5" fill="none" stroke-dasharray="1.5 8"/></g><g transform="translate(525.6956131123723 311.6227811320528) rotate(0 3.16207926848125 115.81673722515353)"><path d="M-2.44 209.43 C1.96 219.52, 6.67 228.46, 6.91 232.61" stroke="#1e1e1e" stroke-width="2.5" fill="none" stroke-dasharray="1.5 6"/></g><g transform="translate(525.6956131123723 311.6227811320528) rotate(0 3.16207926848125 115.81673722515353)"><path d="M14.65 208.84 C12.39 219.04, 10.43 228.2, 6.91 232.61" stroke="#1e1e1e" stroke-width="2.5" fill="none" stroke-dasharray="1.5 6"/></g></g><mask id="mask-0K5viMNSpdJ8ITzUTbS_7"><rect x="0" y="0" fill="#fff" width="632.0197716493348" height="643.2562555823599"/><rect x="487.72976269335345" y="404.43951835720634" fill="#000" width="82.255859375" height="46" opacity="1"/></mask><g transform="translate(487.72976269335345 404.43951835720634) rotate(0 40.98557212799787 23.658245272934437)"><text x="41.1279296875" y="0" font-family="Helvetica, Segoe UI Emoji" font-size="20px" fill="#1e1e1e" text-anchor="middle" style="white-space: pre;" direction="ltr" dominant-baseline="text-before-edge">real </text><text x="41.1279296875" y="23" font-family="Helvetica, Segoe UI Emoji" font-size="20px" fill="#1e1e1e" text-anchor="middle" style="white-space: pre;" direction="ltr" dominant-baseline="text-before-edge">controller</text></g><g mask="url(#mask-NKaLp4wN6HyxucK0D7ONY)" stroke-linecap="round"><g transform="translate(532.5009021172087 307.28375476283) rotate(0 22.85013487889563 117.36235895208466)"><path d="M0.69 0.17 C8.37 14.45, 46.14 47.11, 46.72 86.2 C47.3 125.28, 11.29 209.82, 4.15 234.69 M-0.41 -0.79 C7.14 13.13, 45.14 45.1, 46.31 84.56 C47.47 124.02, 13.71 211.2, 6.57 235.99" stroke="#1971c2" stroke-width="2" fill="none"/></g><g transform="translate(532.5009021172087 307.28375476283) rotate(0 22.85013487889563 117.36235895208466)"><path d="M5.82 211 C6.47 221.56, 7.99 227.21, 6.57 235.99 M5.82 211 C6.44 219.27, 5.81 226.14, 6.57 235.99" stroke="#1971c2" stroke-width="2" fill="none"/></g><g transform="translate(532.5009021172087 307.28375476283) rotate(0 22.85013487889563 117.36235895208466)"><path d="M22.06 216.37 C16.93 225.11, 12.69 228.87, 6.57 235.99 M22.06 216.37 C17.91 223.14, 12.45 228.41, 6.57 235.99" stroke="#1971c2" stroke-width="2" fill="none"/></g></g><mask id="mask-NKaLp4wN6HyxucK0D7ONY"><rect x="0" y="0" fill="#fff" width="678.201171875" height="642.0084726669993"/><rect x="549.294921875" y="381.05859375" fill="#000" width="57.8125" height="23" opacity="1"/></mask><g transform="translate(549.294921875 381.05859375) rotate(0 6.364175109791077 43.82763807624009)"><text x="28.90625" y="0" font-family="Helvetica, Segoe UI Emoji" font-size="20px" fill="#1971c2" text-anchor="middle" style="white-space: pre;" direction="ltr" dominant-baseline="text-before-edge">cancel</text></g></svg>