<svg version="1.1" xmlns="http://www.w3.org/2000/svg" viewBox="0 0 879.4716832307961 514.4788169259091" width="879.4716832307961" height="514.4788169259091" class="excalidraw-svg">
  <!-- svg-source:excalidraw -->
  
  <defs>
    <style class="style-fonts">
      @font-face {
        font-family: "Virgil";
        src: url("https://excalidraw.com/Virgil.woff2");
      }
      @font-face {
        font-family: "Cascadia";
        src: url("https://excalidraw.com/Cascadia.woff2");
      }
      @font-face {
        font-family: "Assistant";
        src: url("https://excalidraw.com/Assistant-Regular.woff2");
      }
    </style>
    
  </defs>
  <rect x="0" y="0" width="879.4716832307961" height="514.4788169259091" fill="#ffffff"/><g stroke-linecap="round" transform="translate(353.9482820297262 10) rotate(0 65.09375 49.015625)"><path d="M84.01 1.44 C93.37 3.18, 102.98 9.71, 110.36 15.18 C117.74 20.64, 125.18 27.15, 128.3 34.24 C131.41 41.33, 131.12 50.16, 129.08 57.71 C127.03 65.25, 122.42 73.53, 116.05 79.51 C109.67 85.49, 100.04 90.36, 90.84 93.57 C81.64 96.78, 70.65 99.09, 60.83 98.77 C51.02 98.44, 40.56 95.69, 31.97 91.61 C23.38 87.53, 14.7 80.85, 9.28 74.28 C3.86 67.7, 0.04 59.73, -0.54 52.16 C-1.12 44.59, 1.41 35.75, 5.82 28.86 C10.24 21.98, 17.9 15.63, 25.95 10.86 C34.01 6.08, 43.67 1.59, 54.14 0.21 C64.61 -1.18, 82.47 1.59, 88.77 2.57 C95.06 3.54, 92.24 5.13, 91.89 6.06 M36.09 3.92 C44.26 -0.03, 56.18 -1.18, 66.28 -0.65 C76.37 -0.12, 87.56 3.04, 96.68 7.09 C105.8 11.13, 115.29 17.34, 120.98 23.62 C126.66 29.9, 130 37.58, 130.78 44.76 C131.55 51.95, 129.53 59.62, 125.62 66.74 C121.72 73.86, 115.01 82.59, 107.35 87.47 C99.68 92.36, 89.71 94.81, 79.63 96.04 C69.54 97.26, 56.54 96.62, 46.83 94.82 C37.12 93.02, 28.52 90.22, 21.36 85.24 C14.2 80.25, 7.49 72.08, 3.85 64.91 C0.21 57.74, -2.2 49.63, -0.49 42.22 C1.22 34.82, 8.1 26.54, 14.11 20.5 C20.12 14.45, 31.66 8.27, 35.57 5.93 C39.49 3.6, 36.94 6.1, 37.59 6.49" stroke="none" stroke-width="0" fill="#b2f2bb"/><path d="M77.06 0.06 C86.71 0.53, 96.82 5.99, 104.55 10.8 C112.29 15.61, 119.15 22.04, 123.46 28.89 C127.77 35.75, 130.75 44.32, 130.41 51.93 C130.08 59.54, 126.77 67.95, 121.44 74.55 C116.11 81.14, 107.21 87.47, 98.42 91.51 C89.64 95.55, 78.77 98.32, 68.74 98.79 C58.71 99.25, 47.39 97.4, 38.24 94.28 C29.09 91.16, 19.88 86.11, 13.84 80.09 C7.79 74.07, 3.7 65.61, 1.98 58.18 C0.26 50.74, 0.66 42.73, 3.52 35.49 C6.39 28.24, 12.14 20.13, 19.15 14.7 C26.15 9.26, 33.73 4.78, 45.57 2.88 C57.41 0.98, 80.94 2.24, 90.19 3.3 C99.44 4.35, 101.4 8.47, 101.08 9.2 M48.49 0.73 C57.82 -1.8, 69.9 -0.24, 79.57 1.68 C89.23 3.6, 99.03 7.58, 106.48 12.25 C113.93 16.92, 120.32 22.88, 124.28 29.71 C128.24 36.53, 131.18 45.49, 130.22 53.18 C129.27 60.88, 124.33 69.33, 118.54 75.86 C112.75 82.4, 104.14 88.83, 95.5 92.38 C86.85 95.93, 76.65 96.82, 66.66 97.17 C56.66 97.52, 44.34 97.7, 35.53 94.5 C26.71 91.3, 19.45 84.15, 13.77 77.99 C8.08 71.82, 3.13 65.24, 1.41 57.51 C-0.3 49.78, 0.36 38.95, 3.45 31.63 C6.55 24.32, 12.36 18.83, 19.98 13.63 C27.61 8.43, 44.48 2.14, 49.2 0.46 C53.92 -1.23, 48.28 2.71, 48.3 3.51" stroke="#1e1e1e" stroke-width="2" fill="none"/></g><g transform="translate(386.2257140543644 47.356344178403106) rotate(0 32.7880859375 11.5)"><text x="32.7880859375" y="0" font-family="Helvetica, Segoe UI Emoji" font-size="20px" fill="#1e1e1e" text-anchor="middle" style="white-space: pre;" direction="ltr" dominant-baseline="text-before-edge">root ctx</text></g><g stroke-linecap="round" transform="translate(174.31922977436835 192.48503242121973) rotate(0 66.431640625 48.46484375)"><path d="M53.84 0.59 C63.15 -1.26, 75.81 -0.27, 85.68 2.06 C95.56 4.38, 105.63 9.34, 113.1 14.55 C120.57 19.76, 127.28 26.31, 130.53 33.32 C133.77 40.32, 134.49 49.06, 132.56 56.58 C130.63 64.09, 125.57 72.53, 118.94 78.42 C112.3 84.31, 102.26 88.96, 92.76 91.9 C83.25 94.84, 72.05 96.29, 61.91 96.05 C51.77 95.82, 40.5 94.24, 31.9 90.47 C23.29 86.69, 15.72 79.93, 10.29 73.41 C4.86 66.88, -0.1 58.91, -0.7 51.31 C-1.3 43.71, 2.34 34.62, 6.69 27.8 C11.05 20.98, 15.97 14.96, 25.44 10.41 C34.9 5.85, 55.56 2.09, 63.5 0.49 C71.45 -1.1, 73 0.04, 73.11 0.85 M69.47 0.79 C79.34 0.42, 89.29 3.35, 98.16 6.89 C107.04 10.44, 117.15 16.07, 122.71 22.05 C128.28 28.02, 130.52 35.25, 131.57 42.74 C132.63 50.22, 132.87 59.66, 129.07 66.97 C125.26 74.28, 116.93 81.98, 108.75 86.61 C100.56 91.25, 89.97 93.21, 79.95 94.78 C69.93 96.35, 58.35 97.98, 48.63 96.02 C38.92 94.06, 28.94 88.39, 21.66 83.01 C14.38 77.62, 8.26 70.88, 4.97 63.7 C1.68 56.53, 0.72 47.46, 1.92 39.95 C3.13 32.43, 6.28 24.51, 12.21 18.62 C18.15 12.73, 27.89 7.73, 37.53 4.6 C47.16 1.48, 64.82 0.55, 70.01 -0.12 C75.2 -0.78, 68.81 -0.44, 68.69 0.61" stroke="none" stroke-width="0" fill="#a5d8ff"/><path d="M92.5 3.27 C101.89 5.5, 112.83 12.57, 119.32 18.58 C125.82 24.58, 129.83 32.01, 131.48 39.28 C133.12 46.55, 132.22 54.92, 129.21 62.19 C126.19 69.45, 120.33 77.43, 113.38 82.86 C106.43 88.28, 97.23 92.54, 87.5 94.74 C77.77 96.93, 65.27 97.45, 55.01 96.05 C44.75 94.64, 34.2 90.94, 25.94 86.32 C17.68 81.7, 9.71 75.13, 5.44 68.34 C1.17 61.54, -0.47 53.1, 0.32 45.53 C1.1 37.96, 5.02 29.21, 10.15 22.9 C15.28 16.59, 22.37 11.49, 31.1 7.68 C39.82 3.88, 51.33 0.42, 62.5 0.08 C73.67 -0.26, 91.87 4.41, 98.13 5.64 C104.38 6.87, 100.59 6.65, 100.04 7.45 M76.77 -0.55 C86.59 -0.09, 96.92 4.78, 105.35 9.55 C113.78 14.33, 122.9 21.27, 127.34 28.12 C131.78 34.97, 132.31 43.06, 131.99 50.66 C131.66 58.25, 130.12 67.11, 125.4 73.7 C120.68 80.3, 112.36 86.35, 103.66 90.23 C94.97 94.11, 83.74 96.59, 73.22 96.98 C62.7 97.37, 50.01 95.72, 40.52 92.56 C31.03 89.4, 22.76 83.47, 16.27 78 C9.78 72.54, 4.05 67.07, 1.58 59.79 C-0.89 52.5, -1.27 41.93, 1.44 34.27 C4.15 26.61, 10.81 19.24, 17.83 13.82 C24.84 8.4, 33.53 3.98, 43.54 1.75 C53.54 -0.48, 72.24 0.26, 77.85 0.46 C83.46 0.67, 77.72 2.24, 77.19 3" stroke="#1e1e1e" stroke-width="2" fill="none"/></g><g transform="translate(199.64867714058312 229.68005650644827) rotate(0 41.1279296875 11.5)"><text x="41.1279296875" y="0" font-family="Helvetica, Segoe UI Emoji" font-size="20px" fill="#1e1e1e" text-anchor="middle" style="white-space: pre;" direction="ltr" dominant-baseline="text-before-edge">father ctx</text></g><g stroke-linecap="round" transform="translate(577.1709019807961 191.01397317590906) rotate(0 66.55078125 48.912109375)"><path d="M56.14 0.27 C65.48 -1.78, 77.49 -0.32, 87.14 1.93 C96.8 4.18, 106.96 8.36, 114.07 13.79 C121.18 19.21, 126.86 27.21, 129.79 34.47 C132.72 41.72, 133.55 49.84, 131.64 57.31 C129.74 64.79, 124.91 73.16, 118.35 79.31 C111.78 85.46, 101.51 91.18, 92.24 94.2 C82.96 97.22, 72.91 97.99, 62.68 97.44 C52.46 96.88, 39.94 94.98, 30.89 90.86 C21.83 86.75, 13.6 79.34, 8.36 72.74 C3.11 66.14, -0.22 58.79, -0.57 51.26 C-0.92 43.73, 1.76 34.37, 6.26 27.56 C10.76 20.75, 16.24 14.97, 26.43 10.4 C36.62 5.83, 58.51 1.44, 67.38 0.14 C76.25 -1.16, 79.58 1.91, 79.65 2.61 M60.13 0.27 C69.92 -1.14, 84.5 -0.12, 94.38 3.03 C104.26 6.18, 113.31 12.83, 119.41 19.14 C125.51 25.45, 129.02 33.71, 130.97 40.89 C132.91 48.06, 133.97 55.18, 131.06 62.2 C128.16 69.22, 120.75 77.43, 113.53 82.99 C106.32 88.55, 97.24 93.08, 87.75 95.54 C78.26 98.01, 66.75 99.03, 56.6 97.78 C46.45 96.54, 35.07 92.95, 26.86 88.08 C18.65 83.22, 11.63 75.28, 7.37 68.57 C3.1 61.86, 1.2 55.07, 1.28 47.82 C1.36 40.57, 2.91 31.83, 7.85 25.06 C12.79 18.29, 22.03 11.58, 30.91 7.2 C39.8 2.82, 56.17 -0.25, 61.16 -1.2 C66.15 -2.16, 60.63 0.24, 60.83 1.45" stroke="none" stroke-width="0" fill="#a5d8ff"/><path d="M49.29 1.08 C58.27 -1.41, 69.95 0.28, 80.12 1.87 C90.3 3.46, 102.34 5.77, 110.35 10.64 C118.36 15.51, 124.31 23.86, 128.16 31.07 C132.01 38.27, 134.33 46.44, 133.46 53.88 C132.58 61.32, 128.76 69.33, 122.92 75.72 C117.08 82.11, 107.48 88.67, 98.4 92.24 C89.33 95.81, 78.65 97.03, 68.48 97.14 C58.3 97.24, 46.53 96.25, 37.33 92.86 C28.14 89.47, 19.3 83.13, 13.3 76.8 C7.3 70.47, 2.91 62.24, 1.33 54.9 C-0.24 47.55, 0.36 39.84, 3.85 32.74 C7.34 25.63, 13.62 17.48, 22.26 12.25 C30.9 7.02, 48.89 3.1, 55.68 1.38 C62.47 -0.34, 62.96 1.32, 63 1.92 M78.74 0.43 C88.76 0.86, 101.86 5.32, 110.16 10.37 C118.46 15.42, 124.79 23.51, 128.56 30.74 C132.33 37.97, 133.67 46.18, 132.78 53.74 C131.88 61.3, 128.86 69.8, 123.19 76.08 C117.53 82.36, 107.91 87.81, 98.78 91.4 C89.65 95, 78.64 97.54, 68.43 97.64 C58.21 97.74, 46.89 95.35, 37.49 92.02 C28.09 88.68, 18.29 83.4, 12.04 77.62 C5.8 71.83, 1.4 64.71, 0.03 57.29 C-1.35 49.87, 0.58 40.26, 3.77 33.09 C6.97 25.93, 11.87 19.58, 19.18 14.3 C26.5 9.02, 37.72 3.74, 47.66 1.4 C57.59 -0.94, 73.3 0.4, 78.81 0.25 C84.32 0.09, 80.65 -0.53, 80.74 0.48" stroke="#1e1e1e" stroke-width="2" fill="none"/></g><g transform="translate(602.5352448281585 228.33999832970846) rotate(0 41.1279296875 11.5)"><text x="41.1279296875" y="0" font-family="Helvetica, Segoe UI Emoji" font-size="20px" fill="#1e1e1e" text-anchor="middle" style="white-space: pre;" direction="ltr" dominant-baseline="text-before-edge">father ctx</text></g><g stroke-linecap="round" transform="translate(19.98729189013767 404.19877212980555) rotate(0 65.09375 49.015625)"><path d="M51.22 0.82 C60.36 -1.28, 73.54 -0.86, 83.44 1.34 C93.35 3.55, 103.42 8.66, 110.67 14.05 C117.93 19.44, 124 26.71, 126.95 33.69 C129.9 40.67, 129.85 48.51, 128.37 55.94 C126.9 63.37, 124.06 72.08, 118.08 78.26 C112.11 84.45, 101.72 89.67, 92.53 93.07 C83.34 96.47, 73 98.85, 62.95 98.67 C52.89 98.49, 41.14 95.99, 32.22 91.98 C23.3 87.97, 14.73 81.2, 9.41 74.59 C4.08 67.98, 1.13 59.72, 0.27 52.33 C-0.58 44.95, 0.29 37.1, 4.27 30.3 C8.24 23.49, 15.65 16.35, 24.11 11.52 C32.58 6.68, 49.35 2.98, 55.07 1.27 C60.8 -0.45, 58.33 0.44, 58.47 1.22 M77.51 1 C87.35 1.38, 98.19 6.28, 106.12 10.67 C114.06 15.05, 121.31 20.4, 125.11 27.34 C128.91 34.28, 129.43 44.59, 128.92 52.31 C128.4 60.03, 127.16 67.1, 122.02 73.68 C116.88 80.25, 106.87 87.96, 98.07 91.76 C89.28 95.55, 79.27 95.86, 69.23 96.45 C59.2 97.04, 46.77 97.86, 37.85 95.29 C28.92 92.72, 21.8 87.15, 15.69 81.05 C9.58 74.95, 3.48 66.23, 1.18 58.68 C-1.11 51.13, -1.02 42.95, 1.9 35.78 C4.82 28.6, 11.42 21.23, 18.7 15.63 C25.98 10.04, 35.97 4.94, 45.59 2.21 C55.21 -0.52, 71.13 -0.61, 76.41 -0.74 C81.68 -0.87, 77.71 0.54, 77.23 1.44" stroke="none" stroke-width="0" fill="#ffec99"/><path d="M60.93 -0.42 C70.66 -1.67, 83.22 0.22, 92.34 3.52 C101.45 6.82, 109.34 13.15, 115.62 19.38 C121.91 25.62, 128.19 33.57, 130.03 40.93 C131.87 48.3, 129.79 56.5, 126.67 63.58 C123.55 70.66, 118.35 77.96, 111.31 83.41 C104.27 88.85, 94.24 94.05, 84.44 96.26 C74.64 98.47, 62.47 97.99, 52.51 96.68 C42.55 95.38, 32.54 93.14, 24.67 88.43 C16.8 83.72, 9.3 75.47, 5.27 68.42 C1.24 61.36, -0.21 53.44, 0.48 46.08 C1.18 38.73, 4.18 30.65, 9.44 24.31 C14.69 17.98, 22.59 12.29, 32.02 8.08 C41.45 3.88, 59.67 0.1, 66.02 -0.92 C72.37 -1.94, 70.36 0.98, 70.12 1.98 M41.68 2.59 C50.06 -0.42, 62.86 -0.04, 72.72 0.9 C82.58 1.85, 92.71 3.79, 100.81 8.24 C108.92 12.69, 116.43 20.63, 121.37 27.6 C126.31 34.57, 130.23 42.85, 130.44 50.04 C130.65 57.23, 127.15 64.01, 122.62 70.75 C118.08 77.49, 111.54 85.79, 103.22 90.48 C94.91 95.17, 83.19 98.36, 72.73 98.88 C62.28 99.41, 49.78 96.6, 40.49 93.63 C31.2 90.66, 23.23 86.47, 16.99 81.06 C10.76 75.65, 5.35 68.66, 3.08 61.16 C0.82 53.67, 1.18 43.75, 3.42 36.1 C5.65 28.46, 9.81 20.91, 16.51 15.29 C23.21 9.66, 39.07 4.26, 43.59 2.35 C48.11 0.45, 43.53 3.17, 43.65 3.87" stroke="#1e1e1e" stroke-width="2" fill="none"/></g><g transform="translate(48.92976297727586 441.55511630820865) rotate(0 36.123046875 11.5)"><text x="36.123046875" y="0" font-family="Helvetica, Segoe UI Emoji" font-size="20px" fill="#1e1e1e" text-anchor="middle" style="white-space: pre;" direction="ltr" dominant-baseline="text-before-edge">child ctx</text></g><g stroke-linecap="round" transform="translate(437.77160148721055 403.0530356759091) rotate(0 65.09375 49.015625)"><path d="M65.68 -0.52 C75.38 -1.42, 87.07 0.97, 95.96 4.53 C104.85 8.1, 113.46 14.41, 119.02 20.88 C124.59 27.35, 128.22 35.8, 129.35 43.35 C130.48 50.91, 129.31 59.08, 125.8 66.21 C122.28 73.33, 115.62 80.94, 108.28 86.12 C100.94 91.31, 91.56 95.6, 81.73 97.32 C71.9 99.03, 59.08 98.48, 49.29 96.41 C39.5 94.35, 30.5 89.81, 22.98 84.93 C15.47 80.05, 7.98 74.06, 4.23 67.12 C0.48 60.19, -0.56 51.04, 0.48 43.32 C1.52 35.59, 4.87 26.93, 10.46 20.76 C16.05 14.59, 24.16 9.89, 34.04 6.29 C43.92 2.68, 63.21 -0.05, 69.74 -0.86 C76.27 -1.67, 73.17 0.44, 73.24 1.42 M57.53 -0.4 C67.13 -1.79, 80.23 1.85, 89.59 4.61 C98.95 7.37, 107.36 10.48, 113.68 16.15 C120.01 21.81, 125.38 30.89, 127.53 38.6 C129.67 46.31, 128.9 54.95, 126.57 62.41 C124.24 69.86, 120.27 77.92, 113.55 83.35 C106.83 88.78, 96.08 92.39, 86.25 94.98 C76.41 97.57, 64.44 100.12, 54.52 98.87 C44.61 97.61, 34.5 92.04, 26.75 87.47 C19 82.9, 12.24 78.3, 8.01 71.45 C3.78 64.6, 1.6 54.12, 1.38 46.38 C1.15 38.64, 2.08 31.19, 6.68 25 C11.29 18.81, 20.47 13.2, 28.98 9.22 C37.5 5.23, 52.9 2.17, 57.78 1.07 C62.66 -0.02, 58.1 1.74, 58.26 2.66" stroke="none" stroke-width="0" fill="#ffec99"/><path d="M91.9 4.83 C101.05 7.14, 111.27 12.88, 117.64 18.93 C124.01 24.98, 128.49 33.61, 130.13 41.12 C131.77 48.62, 130.8 56.65, 127.5 63.96 C124.19 71.27, 117.63 79.68, 110.31 84.97 C102.98 90.26, 93.28 93.75, 83.55 95.71 C73.82 97.67, 61.76 98, 51.92 96.71 C42.08 95.42, 32.28 92.61, 24.52 87.97 C16.76 83.34, 9.45 75.95, 5.36 68.9 C1.27 61.84, -0.89 53.12, -0.01 45.64 C0.87 38.16, 5.3 30.6, 10.65 24.02 C16 17.45, 23.49 10.31, 32.09 6.19 C40.68 2.08, 50.54 -1.04, 62.22 -0.69 C73.91 -0.34, 94.63 5.98, 102.21 8.29 C109.79 10.61, 108.53 12.6, 107.71 13.2 M69.29 -0.46 C78.98 -0.81, 91 2.59, 99.58 6.64 C108.17 10.69, 115.58 17.27, 120.8 23.82 C126.02 30.38, 130.42 38.51, 130.88 45.99 C131.35 53.47, 128.1 61.44, 123.59 68.71 C119.08 75.97, 111.91 84.75, 103.81 89.56 C95.71 94.38, 84.97 96.62, 75.01 97.59 C65.05 98.56, 53.3 98.02, 44.04 95.39 C34.79 92.76, 26.19 87.03, 19.47 81.81 C12.75 76.59, 6.88 71.16, 3.72 64.06 C0.56 56.95, -1.18 46.99, 0.51 39.2 C2.21 31.4, 7.49 22.93, 13.89 17.31 C20.28 11.68, 29.35 8.21, 38.89 5.43 C48.43 2.65, 66.08 1.35, 71.11 0.63 C76.15 -0.09, 69.21 0.61, 69.1 1.11" stroke="#1e1e1e" stroke-width="2" fill="none"/></g><g transform="translate(466.71407257434873 440.4093798543122) rotate(0 36.123046875 11.5)"><text x="36.123046875" y="0" font-family="Helvetica, Segoe UI Emoji" font-size="20px" fill="#1e1e1e" text-anchor="middle" style="white-space: pre;" direction="ltr" dominant-baseline="text-before-edge">child ctx</text></g><g stroke-linecap="round" transform="translate(739.2841832307961 406.4475669259091) rotate(0 65.09375 49.015625)"><path d="M88.75 4.35 C98.01 6.19, 107.49 10.61, 114.17 16.39 C120.85 22.18, 126.6 31.42, 128.81 39.04 C131.01 46.65, 129.96 54.93, 127.39 62.08 C124.82 69.24, 120.15 76.46, 113.37 81.95 C106.6 87.45, 96.45 92.55, 86.75 95.04 C77.05 97.53, 65.23 97.9, 55.18 96.91 C45.13 95.92, 34.52 93.36, 26.45 89.11 C18.38 84.87, 11.32 78.36, 6.76 71.43 C2.2 64.5, -1.12 55.08, -0.92 47.54 C-0.72 40.01, 2.97 32.77, 7.95 26.21 C12.94 19.65, 20.45 12.36, 28.99 8.2 C37.53 4.04, 47.2 1.35, 59.21 1.24 C71.23 1.13, 92.76 5.24, 101.09 7.54 C109.42 9.84, 109.79 14.15, 109.18 15.05 M91.63 3.69 C100.5 5.95, 109.99 13.49, 116.09 19.47 C122.18 25.45, 126.25 32.05, 128.19 39.55 C130.12 47.05, 130.61 57.05, 127.69 64.44 C124.78 71.84, 117.86 78.66, 110.69 83.93 C103.52 89.21, 94.32 94.05, 84.68 96.09 C75.04 98.13, 62.82 97.85, 52.86 96.17 C42.91 94.49, 32.64 90.72, 24.95 86.01 C17.25 81.31, 10.58 74.93, 6.69 67.92 C2.79 60.92, 1.02 51.32, 1.59 43.97 C2.17 36.62, 4.96 30.26, 10.13 23.81 C15.31 17.37, 24.16 9.25, 32.64 5.3 C41.12 1.35, 51.11 0.04, 61.01 0.11 C70.92 0.18, 86.82 4.73, 92.07 5.71 C97.32 6.69, 92.64 5.49, 92.51 5.98" stroke="none" stroke-width="0" fill="#ffec99"/><path d="M66.61 -0.84 C76.36 -1.49, 87.8 2.38, 96.55 6.21 C105.31 10.05, 113.53 15.76, 119.12 22.17 C124.71 28.58, 128.95 37.26, 130.1 44.65 C131.25 52.05, 129.94 59.43, 126.01 66.53 C122.09 73.63, 114.18 82.3, 106.54 87.22 C98.89 92.14, 89.73 94.37, 80.14 96.05 C70.56 97.74, 58.79 99.16, 49.02 97.34 C39.25 95.52, 28.96 90.48, 21.5 85.13 C14.04 79.77, 7.71 72.28, 4.26 65.22 C0.82 58.15, -0.54 50.07, 0.83 42.76 C2.21 35.44, 6.63 27.48, 12.5 21.32 C18.37 15.16, 26.2 9.41, 36.06 5.8 C45.92 2.18, 64.76 0.15, 71.65 -0.37 C78.54 -0.9, 77.59 1.6, 77.39 2.63 M68.35 -1.08 C77.6 -1.59, 89.22 2.53, 97.86 6.76 C106.49 10.99, 114.8 17.54, 120.16 24.3 C125.52 31.07, 129.49 39.76, 130.01 47.34 C130.53 54.93, 127.18 63.08, 123.29 69.81 C119.41 76.54, 114.49 83.16, 106.72 87.73 C98.95 92.3, 86.89 95.96, 76.68 97.23 C66.47 98.5, 55.09 97.66, 45.47 95.35 C35.86 93.05, 25.86 88.68, 18.98 83.37 C12.1 78.07, 7.01 70.55, 4.2 63.52 C1.38 56.48, 0.64 48.81, 2.07 41.15 C3.51 33.49, 6.66 23.83, 12.81 17.54 C18.96 11.26, 29.72 6.41, 38.97 3.45 C48.22 0.49, 63.23 0.4, 68.31 -0.21 C73.39 -0.83, 69.23 -1.22, 69.44 -0.26" stroke="#1e1e1e" stroke-width="2" fill="none"/></g><g transform="translate(768.2266543179343 443.8039111043122) rotate(0 36.123046875 11.5)"><text x="36.123046875" y="0" font-family="Helvetica, Segoe UI Emoji" font-size="20px" fill="#1e1e1e" text-anchor="middle" style="white-space: pre;" direction="ltr" dominant-baseline="text-before-edge">child ctx</text></g><g stroke-linecap="round"><g transform="translate(108.86286371698452 400.35568537871376) rotate(0 44.82776553175124 -58.5183439483325)"><path d="M0.22 0.05 C15.09 -19.14, 74.12 -96.43, 88.89 -115.98 M-1.13 -0.97 C14.16 -20.4, 75.79 -98.36, 91.2 -117.55" stroke="#f08c00" stroke-width="2" fill="none"/></g><g transform="translate(108.86286371698452 400.35568537871376) rotate(0 44.82776553175124 -58.5183439483325)"><path d="M83.26 -93.85 C85.67 -101.58, 89.5 -108.1, 91.2 -117.55 M83.26 -93.85 C86.28 -101.29, 87.07 -106.4, 91.2 -117.55" stroke="#f08c00" stroke-width="2" fill="none"/></g><g transform="translate(108.86286371698452 400.35568537871376) rotate(0 44.82776553175124 -58.5183439483325)"><path d="M69.88 -104.49 C75.85 -109.36, 83.31 -112.99, 91.2 -117.55 M69.88 -104.49 C76.53 -109, 81.05 -111.15, 91.2 -117.55" stroke="#f08c00" stroke-width="2" fill="none"/></g></g><mask/><g stroke-linecap="round"><g transform="translate(272.7917749723203 188.36193132035896) rotate(0 46.90306920852636 -46.89266714199769)"><path d="M0.14 1.02 C15.76 -14.71, 77.93 -77.81, 93.63 -93.54 M-1.25 0.5 C14.21 -15.67, 76.74 -79.54, 92.59 -95.53" stroke="#f08c00" stroke-width="2" fill="none"/></g><g transform="translate(272.7917749723203 188.36193132035896) rotate(0 46.90306920852636 -46.89266714199769)"><path d="M82.21 -72.79 C86.78 -79.73, 88.52 -85.22, 92.59 -95.53 M82.21 -72.79 C84.95 -80.75, 89.78 -88.19, 92.59 -95.53" stroke="#f08c00" stroke-width="2" fill="none"/></g><g transform="translate(272.7917749723203 188.36193132035896) rotate(0 46.90306920852636 -46.89266714199769)"><path d="M70.02 -84.78 C78.22 -88.24, 83.52 -90.23, 92.59 -95.53 M70.02 -84.78 C76.89 -88.74, 85.82 -92.14, 92.59 -95.53" stroke="#f08c00" stroke-width="2" fill="none"/></g></g><mask/><g stroke-linecap="round"><g transform="translate(599.2116662243689 198.56818724788195) rotate(0 -67.55594751665322 -51.38907060076339)"><path d="M0.63 1.17 C-21.68 -15.94, -111.65 -85.07, -134.09 -102.4 M-0.5 0.73 C-22.85 -16.77, -112.22 -87.28, -134.5 -104.33" stroke="#f08c00" stroke-width="2" fill="none"/></g><g transform="translate(599.2116662243689 198.56818724788195) rotate(0 -67.55594751665322 -51.38907060076339)"><path d="M-110.72 -96.64 C-115.44 -96.97, -123.42 -98.99, -134.5 -104.33 M-110.72 -96.64 C-117.21 -99.41, -124.43 -102.12, -134.5 -104.33" stroke="#f08c00" stroke-width="2" fill="none"/></g><g transform="translate(599.2116662243689 198.56818724788195) rotate(0 -67.55594751665322 -51.38907060076339)"><path d="M-121.22 -83.15 C-123.04 -87.31, -128.08 -93.11, -134.5 -104.33 M-121.22 -83.15 C-124.5 -89.88, -128.61 -96.58, -134.5 -104.33" stroke="#f08c00" stroke-width="2" fill="none"/></g></g><mask/><g stroke-linecap="round"><g transform="translate(518.1809236788044 400.7013929390835) rotate(0 49.19704855804967 -56.403213215019825)"><path d="M-0.77 0.73 C15.85 -17.84, 82.39 -92.76, 99.04 -111.61 M1.03 0.07 C17.61 -18.79, 82.15 -94.01, 98.44 -113.11" stroke="#f08c00" stroke-width="2" fill="none"/></g><g transform="translate(518.1809236788044 400.7013929390835) rotate(0 49.19704855804967 -56.403213215019825)"><path d="M89.65 -89.7 C93.04 -94.24, 95.94 -99.75, 98.44 -113.11 M89.65 -89.7 C93.27 -98.45, 96.1 -104.8, 98.44 -113.11" stroke="#f08c00" stroke-width="2" fill="none"/></g><g transform="translate(518.1809236788044 400.7013929390835) rotate(0 49.19704855804967 -56.403213215019825)"><path d="M76.66 -100.83 C83.19 -102.58, 89.24 -105.39, 98.44 -113.11 M76.66 -100.83 C84.57 -105.89, 91.76 -108.51, 98.44 -113.11" stroke="#f08c00" stroke-width="2" fill="none"/></g></g><mask/><g stroke-linecap="round"><g transform="translate(784.5763722484525 401.87508765782366) rotate(0 -48.37416051454909 -57.32451663149389)"><path d="M0.47 -1.2 C-15.42 -20.4, -79.77 -96.35, -95.95 -115.36 M-0.75 0.79 C-16.67 -18.25, -80.39 -95.02, -96.48 -114.2" stroke="#f08c00" stroke-width="2" fill="none"/></g><g transform="translate(784.5763722484525 401.87508765782366) rotate(0 -48.37416051454909 -57.32451663149389)"><path d="M-74.86 -101.63 C-82.2 -103.33, -86.75 -107.51, -96.48 -114.2 M-74.86 -101.63 C-79.38 -104.69, -85.39 -108.03, -96.48 -114.2" stroke="#f08c00" stroke-width="2" fill="none"/></g><g transform="translate(784.5763722484525 401.87508765782366) rotate(0 -48.37416051454909 -57.32451663149389)"><path d="M-88 -90.68 C-92.06 -95.14, -93.35 -102.04, -96.48 -114.2 M-88 -90.68 C-89.21 -96.36, -91.95 -102.42, -96.48 -114.2" stroke="#f08c00" stroke-width="2" fill="none"/></g></g><mask/><g mask="url(#mask-XEASrIntocIgYivAL2A2e)" stroke-linecap="round"><g transform="translate(10.031503510503114 349.9847247970157) rotate(0 126.82059151785714 -161.806640625)"><path d="M0.94 -0.5 C43.3 -54.41, 211.25 -270.81, 253.35 -324.65 M-0.03 -1.81 C42.23 -55.51, 210.13 -270.26, 252.24 -323.65" stroke="#f08c00" stroke-width="2" fill="none"/></g><g transform="translate(10.031503510503114 349.9847247970157) rotate(0 126.82059151785714 -161.806640625)"><path d="M244.47 -299.89 C245.64 -305.88, 246.53 -311.04, 252.24 -323.65 M244.47 -299.89 C246.06 -306.29, 250.12 -313.91, 252.24 -323.65" stroke="#f08c00" stroke-width="2" fill="none"/></g><g transform="translate(10.031503510503114 349.9847247970157) rotate(0 126.82059151785714 -161.806640625)"><path d="M231.01 -310.45 C235.16 -314.13, 239.12 -316.87, 252.24 -323.65 M231.01 -310.45 C236.72 -313.64, 244.9 -318.03, 252.24 -323.65" stroke="#f08c00" stroke-width="2" fill="none"/></g></g><mask id="mask-XEASrIntocIgYivAL2A2e"><rect x="0" y="0" fill="#fff" width="363.6726865462174" height="773.5980060470157"/><rect x="96.85209502836028" y="176.6780841720157" fill="#000" width="80" height="23" opacity="1"/></mask><g transform="translate(96.85209502836028 176.6780841720157) rotate(0 39.83681983722836 10.734045009314997)"><text x="40" y="0" font-family="Helvetica, Segoe UI Emoji" font-size="20px" fill="#f08c00" text-anchor="middle" style="white-space: pre;" direction="ltr" dominant-baseline="text-before-edge">遍历方向</text></g><g mask="url(#mask-qdqpRPgcBYhH0266elnQ_)" stroke-linecap="round"><g transform="translate(389.23104183920384 113.8312288230099) rotate(0 -45.08646008624122 50.01785049671671)"><path d="M-0.32 -0.92 C-15.27 15.81, -75.76 82.91, -90.71 99.64 M1.72 1.22 C-13.35 18.17, -76.54 84.42, -91.93 100.97" stroke="#1971c2" stroke-width="2" fill="none"/></g><g transform="translate(389.23104183920384 113.8312288230099) rotate(0 -45.08646008624122 50.01785049671671)"><path d="M-82.04 78.01 C-85.83 82.04, -87.1 88.21, -91.93 100.97 M-82.04 78.01 C-83.85 84.19, -86.4 89.69, -91.93 100.97" stroke="#1971c2" stroke-width="2" fill="none"/></g><g transform="translate(389.23104183920384 113.8312288230099) rotate(0 -45.08646008624122 50.01785049671671)"><path d="M-69.6 89.74 C-76 91.21, -79.95 94.85, -91.93 100.97 M-69.6 89.74 C-74.6 93.05, -80.3 95.59, -91.93 100.97" stroke="#1971c2" stroke-width="2" fill="none"/></g></g><mask id="mask-qdqpRPgcBYhH0266elnQ_"><rect x="0" y="0" fill="#fff" width="579.4039620116863" height="313.8669298164433"/><rect x="313.0215348779626" y="152.3490793197266" fill="#000" width="62.24609375" height="23" opacity="1"/></mask><g transform="translate(313.0215348779626 152.3490793197266) rotate(0 31.100967055978245 11.508161670356067)"><text x="31.123046875" y="0" font-family="Helvetica, Segoe UI Emoji" font-size="20px" fill="#1971c2" text-anchor="middle" style="white-space: pre;" direction="ltr" dominant-baseline="text-before-edge">new kv</text></g><g mask="url(#mask-xpQE8V11TFWudfvs3OanO)" stroke-linecap="round"><g transform="translate(439.81861313304813 121.14250628089843) rotate(0 67.68729257598073 48.73898741424524)"><path d="M-0.09 -0.66 C22.54 15.62, 112.55 82.28, 135.3 98.44 M-1.6 1.61 C20.92 17.5, 111.35 80.92, 134.32 96.83" stroke="#1971c2" stroke-width="2" fill="none"/></g><g transform="translate(439.81861313304813 121.14250628089843) rotate(0 67.68729257598073 48.73898741424524)"><path d="M110.16 90.4 C115.28 91.95, 124.18 95.44, 134.32 96.83 M110.16 90.4 C115.77 91.38, 120.58 93.47, 134.32 96.83" stroke="#1971c2" stroke-width="2" fill="none"/></g><g transform="translate(439.81861313304813 121.14250628089843) rotate(0 67.68729257598073 48.73898741424524)"><path d="M119.95 76.37 C122.65 81.5, 129.04 88.59, 134.32 96.83 M119.95 76.37 C123.65 80.26, 126.45 85.23, 134.32 96.83" stroke="#1971c2" stroke-width="2" fill="none"/></g></g><mask id="mask-xpQE8V11TFWudfvs3OanO"><rect x="0" y="0" fill="#fff" width="675.1931982850097" height="318.6204811093889"/><rect x="476.38285883402887" y="158.38149369514366" fill="#000" width="62.24609375" height="23" opacity="1"/></mask><g transform="translate(476.38285883402887 158.38149369514366) rotate(0 30.28663467241917 11.652797441184525)"><text x="31.123046875" y="0" font-family="Helvetica, Segoe UI Emoji" font-size="20px" fill="#1971c2" text-anchor="middle" style="white-space: pre;" direction="ltr" dominant-baseline="text-before-edge">new kv</text></g><g mask="url(#mask-LUrnSHToVmXkEaexGJRK_)" stroke-linecap="round"><g transform="translate(229.96716406893057 295.3410660441836) rotate(0 -46.77173648635684 61.26355419532663)"><path d="M-0.55 0.18 C-16.25 20.63, -78.55 102.51, -94.13 122.96 M1.37 -0.77 C-13.94 19.29, -75.66 100.82, -91.73 121.07" stroke="#1971c2" stroke-width="2" fill="none"/></g><g transform="translate(229.96716406893057 295.3410660441836) rotate(0 -46.77173648635684 61.26355419532663)"><path d="M-84.13 97.25 C-86.11 103.52, -88.01 110.94, -91.73 121.07 M-84.13 97.25 C-87.29 105.55, -89.74 113.46, -91.73 121.07" stroke="#1971c2" stroke-width="2" fill="none"/></g><g transform="translate(229.96716406893057 295.3410660441836) rotate(0 -46.77173648635684 61.26355419532663)"><path d="M-70.6 107.71 C-76.74 110.72, -82.78 114.94, -91.73 121.07 M-70.6 107.71 C-78.24 112.69, -85.14 117.15, -91.73 121.07" stroke="#1971c2" stroke-width="2" fill="none"/></g></g><mask id="mask-LUrnSHToVmXkEaexGJRK_"><rect x="0" y="0" fill="#fff" width="423.51063704164426" height="517.8681744348369"/><rect x="152.07238070757376" y="345.10462023951027" fill="#000" width="62.24609375" height="23" opacity="1"/></mask><g transform="translate(152.07238070757376 345.10462023951027) rotate(0 31.510474155084196 11.332236945866612)"><text x="31.123046875" y="0" font-family="Helvetica, Segoe UI Emoji" font-size="20px" fill="#1971c2" text-anchor="middle" style="white-space: pre;" direction="ltr" dominant-baseline="text-before-edge">new kv</text></g><g mask="url(#mask-3hcwP-JoEIiktWkDGn_w8)" stroke-linecap="round"><g transform="translate(665.8118320988898 298.01317897424804) rotate(0 -54.16812130904714 68.53555335083061)"><path d="M-0.01 -0.46 C-18.39 22.06, -91.47 113.21, -109.51 136.08 M-1.47 -1.75 C-19.57 20.81, -89.49 113.82, -107.42 137.1" stroke="#1971c2" stroke-width="2" fill="none"/></g><g transform="translate(665.8118320988898 298.01317897424804) rotate(0 -54.16812130904714 68.53555335083061)"><path d="M-100 113.22 C-103.29 119.98, -106.88 130.75, -107.42 137.1 M-100 113.22 C-102.5 118.94, -104.94 126.63, -107.42 137.1" stroke="#1971c2" stroke-width="2" fill="none"/></g><g transform="translate(665.8118320988898 298.01317897424804) rotate(0 -54.16812130904714 68.53555335083061)"><path d="M-86.39 123.57 C-94.73 126.55, -103.28 133.54, -107.42 137.1 M-86.39 123.57 C-92.65 126.35, -98.85 131.18, -107.42 137.1" stroke="#1971c2" stroke-width="2" fill="none"/></g></g><mask id="mask-3hcwP-JoEIiktWkDGn_w8"><rect x="0" y="0" fill="#fff" width="874.1480747169841" height="535.0842856759093"/><rect x="580.5206639148427" y="355.0487323250786" fill="#000" width="62.24609375" height="23" opacity="1"/></mask><g transform="translate(580.5206639148427 355.0487323250786) rotate(0 30.5309993699193 10.640106083480646)"><text x="31.123046875" y="0" font-family="Helvetica, Segoe UI Emoji" font-size="20px" fill="#1971c2" text-anchor="middle" style="white-space: pre;" direction="ltr" dominant-baseline="text-before-edge">new kv</text></g><g mask="url(#mask-97f8rH2tEQ2nJk2ccm-EP)" stroke-linecap="round"><g transform="translate(668.8944497621553 297.5926284478933) rotate(0 43.35278244118868 56.28363748282769)"><path d="M-1.02 0.87 C13.36 19.62, 72.24 94.46, 86.76 113.12 M0.64 0.28 C14.83 18.62, 71.77 92.28, 85.83 111.28" stroke="#1971c2" stroke-width="2" fill="none"/></g><g transform="translate(668.8944497621553 297.5926284478933) rotate(0 43.35278244118868 56.28363748282769)"><path d="M64.82 97.73 C73.44 102.58, 80.02 106.06, 85.83 111.28 M64.82 97.73 C71.22 102.05, 78.08 107.12, 85.83 111.28" stroke="#1971c2" stroke-width="2" fill="none"/></g><g transform="translate(668.8944497621553 297.5926284478933) rotate(0 43.35278244118868 56.28363748282769)"><path d="M78.45 87.4 C82.51 95.62, 84.48 102.6, 85.83 111.28 M78.45 87.4 C80.38 95, 82.86 103.39, 85.83 111.28" stroke="#1971c2" stroke-width="2" fill="none"/></g></g><mask id="mask-97f8rH2tEQ2nJk2ccm-EP"><rect x="0" y="0" fill="#fff" width="855.6000146445326" height="510.15990341354865"/><rect x="681.1241853283441" y="342.37626593072093" fill="#000" width="62.24609375" height="23" opacity="1"/></mask><g transform="translate(681.1241853283441 342.37626593072105) rotate(0 30.63713001757857 11.912005919455552)"><text x="31.123046875" y="0" font-family="Helvetica, Segoe UI Emoji" font-size="20px" fill="#1971c2" text-anchor="middle" style="white-space: pre;" direction="ltr" dominant-baseline="text-before-edge">new kv</text></g><g stroke-linecap="round" transform="translate(282.5073543950525 399.4060479150041) rotate(0 65.09375 49.015625)"><path d="M50.35 1.63 C59.31 -0.75, 70.59 0.55, 80.31 2.4 C90.02 4.26, 100.89 7.81, 108.64 12.77 C116.4 17.73, 123.5 25.17, 126.85 32.14 C130.19 39.11, 130 46.94, 128.71 54.57 C127.42 62.2, 124.87 71.48, 119.09 77.91 C113.3 84.33, 103.2 89.84, 94 93.13 C84.8 96.42, 73.84 97.8, 63.87 97.64 C53.9 97.48, 42.87 95.58, 34.21 92.17 C25.54 88.77, 17.34 83.45, 11.86 77.23 C6.38 71.02, 2.4 62.41, 1.33 54.88 C0.25 47.36, 1.88 39.29, 5.41 32.08 C8.94 24.87, 14.04 16.93, 22.51 11.63 C30.99 6.33, 49.9 1.98, 56.27 0.28 C62.65 -1.43, 60.69 0.52, 60.76 1.41 M92.52 4.83 C101.58 7.33, 111.37 14.01, 117.35 19.87 C123.32 25.73, 126.87 32.57, 128.39 39.99 C129.91 47.41, 129.41 56.81, 126.48 64.37 C123.55 71.93, 117.71 80.17, 110.81 85.37 C103.91 90.58, 94.59 93.54, 85.08 95.62 C75.57 97.69, 63.95 99.22, 53.73 97.82 C43.51 96.42, 31.68 91.95, 23.78 87.23 C15.89 82.51, 10.26 76.54, 6.36 69.5 C2.47 62.46, -0.17 52.81, 0.42 44.98 C1.01 37.16, 4.69 29.01, 9.92 22.55 C15.14 16.1, 22.99 10.02, 31.75 6.23 C40.5 2.43, 52.14 -0.14, 62.43 -0.23 C72.72 -0.32, 88.66 4.85, 93.48 5.69 C98.3 6.54, 91.95 4.31, 91.33 4.84" stroke="none" stroke-width="0" fill="#ffc9c9"/><path d="M85.04 1.73 C94.24 3.22, 104.23 8.91, 111.33 14.52 C118.43 20.13, 124.73 28.02, 127.65 35.39 C130.56 42.77, 130.85 51.27, 128.81 58.78 C126.77 66.29, 121.59 74.45, 115.41 80.47 C109.24 86.49, 101.15 91.9, 91.77 94.9 C82.38 97.91, 69.38 99.24, 59.1 98.49 C48.82 97.74, 38.42 94.66, 30.11 90.4 C21.81 86.15, 14.1 79.47, 9.26 72.96 C4.41 66.45, 1.45 58.7, 1.04 51.34 C0.63 43.98, 2.61 35.75, 6.77 28.81 C10.93 21.87, 18.01 14.45, 25.98 9.69 C33.95 4.94, 44.01 1.4, 54.6 0.28 C65.19 -0.84, 83.29 2.1, 89.53 2.98 C95.77 3.86, 92.36 4.85, 92.05 5.57 M86.08 1.44 C95.15 3.39, 105.16 9.99, 111.87 15.83 C118.58 21.66, 123.72 29.23, 126.33 36.46 C128.95 43.68, 129.58 52, 127.57 59.18 C125.55 66.35, 120.7 73.76, 114.24 79.51 C107.78 85.27, 97.84 90.85, 88.81 93.71 C79.78 96.57, 69.87 97.04, 60.04 96.67 C50.21 96.3, 38.2 95.2, 29.82 91.5 C21.45 87.8, 14.94 81.47, 9.79 74.47 C4.64 67.47, -0.56 57.4, -1.08 49.49 C-1.61 41.57, 2.2 33.46, 6.63 26.96 C11.07 20.46, 17.31 14.74, 25.52 10.47 C33.73 6.19, 45.81 2.49, 55.87 1.33 C65.94 0.17, 81.08 3.37, 85.91 3.5 C90.74 3.64, 84.98 1.74, 84.87 2.14" stroke="#1e1e1e" stroke-width="2" fill="none"/></g><g transform="translate(311.4498254821907 436.76239209340724) rotate(0 36.123046875 11.5)"><text x="36.123046875" y="0" font-family="Helvetica, Segoe UI Emoji" font-size="20px" fill="#1e1e1e" text-anchor="middle" style="white-space: pre;" direction="ltr" dominant-baseline="text-before-edge">child ctx</text></g><g mask="url(#mask-nt35W-DcCnu4_LbK2xNzX)" stroke-linecap="round"><g transform="translate(271.4482381813039 287.1384480136395) rotate(0 28.092353871685255 56.802407259185884)"><path d="M0.86 0.85 C10.18 19.58, 46.56 93.55, 55.6 112.46" stroke="#1e1e1e" stroke-width="2.5" fill="none" stroke-dasharray="1.5 8"/></g><g transform="translate(271.4482381813039 287.1384480136395) rotate(0 28.092353871685255 56.802407259185884)"><path d="M37.64 95.07 C43.96 98.69, 45.52 102.54, 55.6 112.46" stroke="#1e1e1e" stroke-width="2.5" fill="none" stroke-dasharray="1.5 6"/></g><g transform="translate(271.4482381813039 287.1384480136395) rotate(0 28.092353871685255 56.802407259185884)"><path d="M53.02 87.6 C55.16 93.36, 52.54 99.24, 55.6 112.46" stroke="#1e1e1e" stroke-width="2.5" fill="none" stroke-dasharray="1.5 6"/></g></g><mask id="mask-nt35W-DcCnu4_LbK2xNzX"><rect x="0" y="0" fill="#fff" width="427.6329459246744" height="500.7432625320113"/><rect x="270.63434205298915" y="332.4408552728254" fill="#000" width="57.8125" height="23" opacity="1"/></mask><g transform="translate(270.63434205298915 332.4408552728254) rotate(0 29.04036481827498 11.356392951309687)"><text x="28.90625" y="0" font-family="Helvetica, Segoe UI Emoji" font-size="20px" fill="#1e1e1e" text-anchor="middle" style="white-space: pre;" direction="ltr" dominant-baseline="text-before-edge">cancel</text></g><g stroke-linecap="round"><g transform="translate(366.382500507334 392.56534087594343) rotate(0 -34.95490692187532 -59.610339631589405)"><path d="M0.32 -0.2 C-11.39 -20.35, -57.94 -100.48, -69.77 -120.28" stroke="#f08c00" stroke-width="2.5" fill="none" stroke-dasharray="1.5 8"/></g><g transform="translate(366.382500507334 392.56534087594343) rotate(0 -34.95490692187532 -59.610339631589405)"><path d="M-50.49 -104.36 C-57.44 -109.48, -65.41 -116.39, -69.77 -120.28" stroke="#f08c00" stroke-width="2.5" fill="none" stroke-dasharray="1.5 6"/></g><g transform="translate(366.382500507334 392.56534087594343) rotate(0 -34.95490692187532 -59.610339631589405)"><path d="M-65.24 -95.69 C-67.23 -103.79, -70.2 -113.64, -69.77 -120.28" stroke="#f08c00" stroke-width="2.5" fill="none" stroke-dasharray="1.5 6"/></g></g><mask/></svg>